<?xml version="1.0" standalone="no"?>
<!DOCTYPE svg PUBLIC "-//W3C//DTD SVG 1.1//EN" "http://www.w3.org/Graphics/SVG/1.1/DTD/svg11.dtd" >
<svg xmlns="http://www.w3.org/2000/svg" xmlns:xlink="http://www.w3.org/1999/xlink" version="1.1">
<metadata>
Created by FontForge 20161013 at Tue Jan 19 12:39:45 2016
 By ,,,
Digital Outlines Copyright (c)2015 Jason Walcott/CounterPoint Type. All Rights Reserved. Original Typeface Design by Walter Haettenschweiler, (c)1954.
</metadata>
<defs>
<font id="SchmalfetteCP" horiz-adv-x="313" >
  <font-face 
    font-family="SchmalfetteCP"
    font-weight="400"
    font-stretch="normal"
    units-per-em="1000"
    panose-1="0 0 0 0 0 0 0 0 0 0"
    ascent="872"
    descent="-128"
    x-height="700"
    cap-height="701"
    bbox="-54 -246 1282 895"
    underline-thickness="50"
    underline-position="-200"
    unicode-range="U+000D-FB04"
  />
<missing-glyph horiz-adv-x="200" 
 />
    <glyph glyph-name="ellipsis" unicode="&#x2e;&#x2e;&#x2e;" horiz-adv-x="505" 
d="M149 98v-98h-113v98h113zM317 98v-98h-113v98h113zM485 98v-98h-113v98h113z" />
    <glyph glyph-name="ff" unicode="ff" horiz-adv-x="533" 
d="M137 0h-117v700h235v-91h-118v-193h104v-84h-104v-332zM400 0h-117v700h235v-91h-118v-193h104v-84h-104v-332z" />
    <glyph glyph-name="fi" unicode="fi" horiz-adv-x="440" 
d="M137 0h-117v700h235v-91h-118v-193h104v-84h-104v-332zM284 701h120v-701h-120v701z" />
    <glyph glyph-name="fl" unicode="fl" horiz-adv-x="517" 
d="M137 0h-117v700h235v-91h-118v-193h104v-84h-104v-332zM512 0h-230v700h115v-609h115v-91z" />
    <glyph glyph-name="ffi" unicode="ffi" horiz-adv-x="707" 
d="M404 0h-117v700h235v-91h-118v-193h104v-84h-104v-332zM551 701h120v-701h-120v701zM137 0h-117v700h235v-91h-118v-193h104v-84h-104v-332z" />
    <glyph glyph-name="ffl" unicode="ffl" horiz-adv-x="785" 
d="M405 0h-117v700h235v-91h-118v-193h104v-84h-104v-332zM780 0h-230v700h115v-609h115v-91zM137 0h-117v700h235v-91h-118v-193h104v-84h-104v-332z" />
    <glyph glyph-name=".notdef" horiz-adv-x="200" 
 />
    <glyph glyph-name=".null" horiz-adv-x="0" 
 />
    <glyph glyph-name="nonmarkingreturn" unicode="&#xd;" horiz-adv-x="200" 
 />
    <glyph glyph-name="NULL" horiz-adv-x="0" 
 />
    <glyph glyph-name="NULL" horiz-adv-x="0" 
 />
    <glyph glyph-name="space" unicode=" " horiz-adv-x="150" 
 />
    <glyph glyph-name="exclam" unicode="!" horiz-adv-x="233" 
d="M173 98v-98h-113v98h113zM173 700v-558h-113v558h113z" />
    <glyph glyph-name="quotedbl" unicode="&#x22;" horiz-adv-x="330" 
d="M162 701v-98l-73 -129h-53l49 129h-36v98h113zM304 701v-98l-73 -129h-53l49 129h-36v98h113z" />
    <glyph glyph-name="numbersign" unicode="#" horiz-adv-x="407" 
d="M126 0l67 249h-35l-68 -249h-74l68 249h-74l20 71h73l14 50h-72l20 71h71l71 260h74l-71 -260h36l71 260h74l-71 -260h77l-20 -71h-76l-14 -50h75l-20 -71h-74l-68 -249h-74zM177 320h36l13 50h-35z" />
    <glyph glyph-name="dollar" unicode="$" horiz-adv-x="296" 
d="M96 0v66q-80 20 -80 110v93h105v-87q0 -34 21 -34q14 0 19 13t5 43q0 48 -25 77l-82 89q-43 45 -42 135v11q0 92 79 111v74h94v-73q75 -18 75 -92v-84h-102v74q0 30 -18 30q-19 0 -19 -45q0 -44 25 -74l91 -102q36 -41 36 -125v-12q0 -108 -88 -133v-65h-94z" />
    <glyph glyph-name="percent" unicode="%" horiz-adv-x="548" 
d="M108 714q42 0 65.5 -23t23.5 -57v-311q0 -39 -23.5 -60t-65.5 -21q-88 0 -88 84v308q0 37 22 58.5t66 21.5zM108 644q-14 0 -14 -16l1 -302q0 -20 14 -20t14 20v302q0 16 -15 16zM439 459q42 0 65.5 -23t23.5 -57v-311q0 -39 -23.5 -60t-65.5 -21q-88 0 -88 84v308
q0 37 22 58.5t66 21.5zM439 389q-14 0 -14 -16l1 -302q0 -20 14 -20t14 20v302q0 16 -15 16zM106 0l265 701h74l-265 -701h-74z" />
    <glyph glyph-name="ampersand" unicode="&#x26;" horiz-adv-x="388" 
d="M204 403l-20 -12l45 -87v81h90v-223q0 -22 -1 -31l11 -22q8 -13 23 -13h21v-96h-65q-20 0 -34 20q-38 -34 -102 -34q-72 0 -112 45.5t-40 131.5v149q0 70 39 106q-23 40 -31.5 66.5t-8.5 65.5v26q0 59 37.5 98.5t104.5 39.5q59 0 92.5 -37.5t33.5 -100.5v-26
q0 -97 -83 -147zM179 85q33 0 44 27l-92 172v-138q0 -33 14.5 -47t33.5 -14zM125 583v-27q0 -41 17 -83l5 3q31 20 31 59v47q0 44 -27 44q-26 0 -26 -43z" />
    <glyph glyph-name="quotesingle" unicode="'" horiz-adv-x="188" 
d="M162 701v-98l-73 -129h-53l49 129h-36v98h113z" />
    <glyph glyph-name="parenleft" unicode="(" horiz-adv-x="324" 
d="M284 -16v-35q-106 0 -175 99t-69 309q0 208 69.5 309t174.5 101v-37q-64 0 -94.5 -99.5t-30.5 -273.5q0 -373 125 -373z" />
    <glyph glyph-name="parenright" unicode=")" horiz-adv-x="324" 
d="M40 -51v35q125 0 125 373q0 174 -30.5 273.5t-94.5 99.5v37q105 0 174.5 -101t69.5 -309q0 -210 -69 -309t-175 -99z" />
    <glyph glyph-name="asterisk" unicode="*" horiz-adv-x="325" 
d="M122 443l-66 42l35 55h-66v78h66l-33 56l65 39l37 -62l38 61l66 -40l-34 -54h70v-78h-73l34 -57l-66 -40l-36 60z" />
    <glyph glyph-name="plus" unicode="+" horiz-adv-x="388" 
d="M368 413v-100h-123v-127h-100v127h-125v100h125v121h100v-121h123z" />
    <glyph glyph-name="comma" unicode="," horiz-adv-x="182" 
d="M162 98v-98l-73 -129h-53l49 129h-36v98h113z" />
    <glyph glyph-name="hyphen" unicode="-" horiz-adv-x="284" 
d="M264 413v-100h-244v100h244z" />
    <glyph glyph-name="period" unicode="." horiz-adv-x="169" 
d="M149 98v-98h-113v98h113z" />
    <glyph glyph-name="slash" unicode="/" horiz-adv-x="366" 
d="M17 0l265 701h74l-265 -701h-74z" />
    <glyph glyph-name="zero" unicode="0" 
d="M155 714q65 0 101.5 -35.5t36.5 -87.5v-481q0 -61 -36 -93t-102 -32q-135 0 -135 131v475q0 56 33.5 89.5t101.5 33.5zM156 606q-22 0 -22 -25l1 -465q0 -31 22 -31t22 31v465q0 25 -23 25z" />
    <glyph glyph-name="one" unicode="1" horiz-adv-x="205" 
d="M80 700h99v-700h-121v521h-44v88q32 6 49 30.5t17 60.5z" />
    <glyph glyph-name="two" unicode="2" horiz-adv-x="322" 
d="M123 459h-103v121q0 60 37 97t99 37q76 0 111 -49t35 -126q0 -85 -31 -158l-129 -294h159v-87h-281v90l147 332q27 61 27 129q0 63 -39 63q-32 0 -32 -46v-109z" />
    <glyph glyph-name="three" unicode="3" horiz-adv-x="315" 
d="M126 461h-102v135q0 55 34 86.5t101 31.5q68 0 102 -39.5t34 -129.5v-32q0 -119 -80 -139q40 -7 61 -36.5t21 -100.5v-102q0 -80 -34.5 -115t-99.5 -35q-70 0 -106 31t-36 86l-1 182h106v-163q0 -16 8.5 -25t20.5 -9t20.5 9t8.5 25v168q0 46 -43 46h-15v74h15q43 0 43 37
v129q0 41 -31 41q-28 0 -28 -38z" />
    <glyph glyph-name="four" unicode="4" horiz-adv-x="369" 
d="M20 195l115 505h155v-513h67v-103h-67v-84h-103v84h-167v111zM187 187v332l-69 -332h69z" />
    <glyph glyph-name="five" unicode="5" 
d="M24 331v369h273l-13 -91h-152v-189q22 46 76 46q35 0 59.5 -24t24.5 -67v-271q0 -58 -36.5 -88t-97.5 -30q-62 0 -98 29.5t-36 87.5v182h108v-165q0 -37 29 -37t29 37v219q0 36 -30 36q-28 0 -28 -31v-13h-108z" />
    <glyph glyph-name="six" unicode="6" horiz-adv-x="305" 
d="M20 115v459q0 66 32.5 103t97.5 37q62 0 94.5 -32t32.5 -93v-82h-102v80q0 30 -25 30t-25 -30v-157q29 26 70 26q37 0 63.5 -26t26.5 -70v-245q0 -59 -35.5 -93.5t-95.5 -34.5q-64 0 -99 34t-35 94zM150 374q-25 0 -25 -34v-224q0 -33 25 -33t25 33v225q0 33 -25 33z" />
    <glyph glyph-name="seven" unicode="7" horiz-adv-x="305" 
d="M20 700h270v-90l-136 -610h-121l139 609h-152v91z" />
    <glyph glyph-name="eight" unicode="8" horiz-adv-x="318" 
d="M159 714q60 0 96 -34t36 -91v-101q0 -76 -70 -106q36 -13 56.5 -41t20.5 -66v-167q0 -52 -37 -87.5t-102 -35.5q-63 0 -101 36t-38 87v167q0 75 75 105q-71 27 -71 108v101q0 57 36.5 91t98.5 34zM185 108v206q0 13 -7.5 21t-17.5 8t-18 -7.5t-8 -21.5v-206
q0 -15 7.5 -23t17.5 -8q11 0 18.5 8t7.5 23zM137 597v-156q0 -11 7 -17t17 -6q9 0 16 6t7 17v156q0 12 -7 18.5t-16 6.5q-10 0 -17 -6.5t-7 -18.5z" />
    <glyph glyph-name="nine" unicode="9" horiz-adv-x="299" 
d="M279 590v-463q0 -66 -32.5 -103t-97.5 -37q-63 0 -95 32.5t-32 92.5v180h103v-178q0 -30 24 -30q25 0 25 30v241q-22 -34 -73 -34q-34 0 -57.5 22t-23.5 67v180q0 60 32.5 92t92.5 32q64 0 99 -32t35 -92zM150 408q24 0 24 34v143q0 33 -25 33q-12 0 -17.5 -7t-5.5 -26
v-144q0 -33 24 -33z" />
    <glyph glyph-name="colon" unicode=":" horiz-adv-x="169" 
d="M149 501v-98h-113v98h113zM149 98v-98h-113v98h113z" />
    <glyph glyph-name="semicolon" unicode=";" horiz-adv-x="184" 
d="M162 98v-98l-73 -129h-53l49 129h-36v98h113zM164 403v98h-113v-98h113z" />
    <glyph glyph-name="less" unicode="&#x3c;" horiz-adv-x="567" 
d="M517 198v-85l-467 234v41l467 237v-79l-351 -177z" />
    <glyph glyph-name="equal" unicode="=" horiz-adv-x="388" 
d="M368 332v-100h-348v100h348zM368 489v-100h-348v100h348z" />
    <glyph glyph-name="greater" unicode="&#x3e;" horiz-adv-x="567" 
d="M50 113v85l351 171l-351 177v79l467 -237v-41z" />
    <glyph glyph-name="question" unicode="?" horiz-adv-x="334" 
d="M180 713q63 0 98.5 -34.5t35.5 -90.5v-93q0 -41 -22 -83l-43 -84q-21 -38 -21 -85v-101h-113v121q0 42 19 76l47 88q20 39 20 78v85q0 26 -22 26t-22 -25v-136h-117v129q0 55 36 92t104 37zM228 98v-98h-113v98h113z" />
    <glyph glyph-name="at" unicode="@" horiz-adv-x="633" 
d="M348 154q-22 -22 -60 -22q-103 0 -103 92q0 7 2 29l22 161q8 63 49 103t93 40q42 0 55 -16l2 15h75l-49 -284q-3 -27 -3 -28q0 -46 28 -46q26 0 56 70.5t30 159.5q0 99 -51.5 164t-137.5 65q-73 0 -128 -50t-81.5 -124.5t-26.5 -158.5q0 -118 55 -201t156 -83
q67 0 131 38q26 15 50 39l33 -41q-85 -91 -217 -91q-141 0 -225.5 105.5t-84.5 253.5q0 98 37 187t114 150t178 61q55 0 100.5 -18t76 -47.5t51.5 -70t30.5 -85t9.5 -92.5q0 -122 -59.5 -217t-139.5 -95q-20 0 -39.5 10t-28.5 27zM308 204q13 0 20 10t13 43l29 179
q2 14 2 21q0 36 -21 36q-15 0 -22.5 -12t-13.5 -52l-26 -159q-3 -14 -3 -28q0 -37 22 -38z" />
    <glyph glyph-name="A" unicode="A" horiz-adv-x="338" 
d="M83 700h170l77 -700h-110l-18 192h-70l-19 -192h-105zM168 561l-28 -282h54z" />
    <glyph glyph-name="B" unicode="B" horiz-adv-x="317" 
d="M130 91h31q27 0 27 32v176q0 37 -31 37h-27v-245zM130 609v-193h22q13 0 20.5 9.5t7.5 21.5v130q0 32 -27 32h-23zM20 0v700h158q53 0 84.5 -31.5t31.5 -79.5v-109q0 -43 -27 -72t-63 -31q43 -3 70.5 -27.5t27.5 -69.5l-1 -169q0 -47 -33 -79t-86 -32h-162z" />
    <glyph glyph-name="C" unicode="C" horiz-adv-x="304" 
d="M179 459v122q0 25 -23 25q-22 0 -22 -25l1 -465q0 -31 22 -31t22 31v162h109v-168q0 -125 -133 -125q-135 0 -135 131v475q0 56 33.5 89.5t101.5 33.5q65 0 99 -32t34 -83v-140h-109z" />
    <glyph glyph-name="D" unicode="D" 
d="M20 0v700h164q109 0 109 -109v-488q0 -53 -26.5 -78t-83.5 -25h-163zM134 610v-522h25q20 0 20 21v471q0 30 -25 30h-20z" />
    <glyph glyph-name="E" unicode="E" horiz-adv-x="275" 
d="M250 0h-230v700h235v-91h-118v-193h104v-84h-104v-241h113v-91z" />
    <glyph glyph-name="F" unicode="F" horiz-adv-x="270" 
d="M137 0h-117v700h235v-91h-118v-193h104v-84h-104v-332z" />
    <glyph glyph-name="G" unicode="G" horiz-adv-x="308" 
d="M179 459v122q0 25 -23 25q-22 0 -22 -25l1 -465q0 -25 20 -25q10 0 17 7.5t7 20.5v124h-23v94h132v-337h-47l-23 37q-28 -52 -90 -52q-43 0 -75.5 30.5t-32.5 84.5v491q0 56 33.5 89.5t101.5 33.5q65 0 99 -32t34 -83v-140h-109z" />
    <glyph glyph-name="H" unicode="H" horiz-adv-x="327" 
d="M20 701h120v-285h47v285h120v-701h-120v332h-47v-332h-120v701z" />
    <glyph glyph-name="I" unicode="I" horiz-adv-x="192" 
d="M36 701h120v-701h-120v701z" />
    <glyph glyph-name="J" unicode="J" 
d="M179 700h114v-590q0 -61 -36 -93t-102 -32q-135 0 -135 131v179h115v-179q0 -31 22 -31t22 31v584z" />
    <glyph glyph-name="K" unicode="K" horiz-adv-x="330" 
d="M20 700h115v-246l55 246h111l-77 -314l98 -386h-123l-64 294v-294h-115v700z" />
    <glyph glyph-name="L" unicode="L" horiz-adv-x="255" 
d="M250 0h-230v700h115v-609h115v-91z" />
    <glyph glyph-name="M" unicode="M" horiz-adv-x="474" 
d="M20 700h169l55 -380l58 380h152v-700h-100v429l-72 -429h-82l-80 430v-430h-100v700z" />
    <glyph glyph-name="N" unicode="N" horiz-adv-x="355" 
d="M20 700h137l78 -363v363h100v-700h-118l-95 411v-411h-102v700z" />
    <glyph glyph-name="O" unicode="O" 
d="M155 714q65 0 101.5 -35.5t36.5 -87.5v-481q0 -61 -36 -93t-102 -32q-135 0 -135 131v475q0 56 33.5 89.5t101.5 33.5zM156 606q-22 0 -22 -25l1 -465q0 -31 22 -31t22 31v465q0 25 -23 25z" />
    <glyph glyph-name="P" unicode="P" horiz-adv-x="305" 
d="M20 0v700h164q109 0 109 -109v-226q0 -53 -26.5 -78t-83.5 -25h-46v-262h-117zM134 610v-260h25q20 0 20 21v209q0 30 -25 30h-20z" />
    <glyph glyph-name="Q" unicode="Q" horiz-adv-x="314" 
d="M155 714q65 0 101.5 -35.5t36.5 -87.5v-481q0 -80 -60 -109v-7q0 -24 27 -24h38v-75h-56q-26 0 -41.5 18.5t-15.5 45.5q0 20 4 29q-17 -3 -34 -3q-135 0 -135 131v475q0 56 33.5 89.5t101.5 33.5zM156 606q-22 0 -22 -25l1 -465q0 -31 22 -31t22 31v465q0 25 -23 25z" />
    <glyph glyph-name="R" unicode="R" horiz-adv-x="315" 
d="M20 700h158q53 0 84.5 -31.5t31.5 -79.5v-109q0 -43 -27 -72t-63 -31q37 -1 61.5 -23t24.5 -64v-242q0 -34 19 -48h-112q-18 18 -18 59v240q0 37 -31 37h-18v-336h-110v700zM130 609v-193h21q13 0 20.5 9.5t7.5 21.5v130q0 32 -27 32h-22z" />
    <glyph glyph-name="S" unicode="S" horiz-adv-x="317" 
d="M155 714q68 0 101.5 -32t33.5 -87v-125h-108v111q0 46 -26 46q-27 0 -27 -65q0 -64 29 -100l106 -130q41 -54 41 -158v-16q0 -173 -148 -173q-145 0 -145 143v145h111v-135q0 -51 30 -51q20 0 26.5 17.5t6.5 61.5q0 66 -30 102l-95 114q-48 53 -48 172v14q0 146 142 146z
" />
    <glyph glyph-name="T" unicode="T" horiz-adv-x="296" 
d="M288 700v-90h-80v-610h-120v610h-80v90h280z" />
    <glyph glyph-name="U" unicode="U" 
d="M179 700h114v-590q0 -61 -36 -93t-102 -32q-135 0 -135 131v584h115v-584q0 -31 22 -31t22 31v584z" />
    <glyph glyph-name="V" unicode="V" horiz-adv-x="338" 
d="M118 700l53 -556l54 556h105l-75 -700h-170l-77 700h110z" />
    <glyph glyph-name="W" unicode="W" horiz-adv-x="513" 
d="M8 700h106l41 -369l45 369h113l52 -369l32 369h108l-81 -700h-111l-58 452l-59 -452h-116z" />
    <glyph glyph-name="X" unicode="X" horiz-adv-x="363" 
d="M353 0h-114l-66 252l-57 -252h-110l92 369l-71 331h110l48 -223l51 223h105l-82 -333z" />
    <glyph glyph-name="Y" unicode="Y" horiz-adv-x="365" 
d="M8 700h113l63 -247l62 247h111l-111 -407v-293h-127v293z" />
    <glyph glyph-name="Z" unicode="Z" horiz-adv-x="286" 
d="M20 700h249v-90l-132 -517h137v-93h-262v93l133 517h-125v90z" />
    <glyph glyph-name="bracketleft" unicode="[" horiz-adv-x="274" 
d="M224 -121v-29h-174v843h174v-29h-57q-25 0 -34 -9t-9 -36v-693q0 -47 41 -47h59z" />
    <glyph glyph-name="backslash" unicode="\" horiz-adv-x="403" 
d="M89 699l264 -791h-39l-264 791h39z" />
    <glyph glyph-name="bracketright" unicode="]" horiz-adv-x="274" 
d="M224 693v-843h-174v29h59q41 0 41 47v693q0 27 -9 36t-34 9h-57v29h174z" />
    <glyph glyph-name="asciicircum" unicode="^" horiz-adv-x="696" 
d="M388 799l258 -277h-68l-231 220l-232 -220h-65l258 277h80z" />
    <glyph glyph-name="underscore" unicode="_" horiz-adv-x="590" 
d="M540 -43v-66h-490v66h490z" />
    <glyph glyph-name="grave" unicode="`" horiz-adv-x="259" 
d="M162 580l-126 121h111l87 -121h-72z" />
    <glyph glyph-name="a" unicode="a" horiz-adv-x="338" 
d="M83 700h170l77 -700h-110l-18 192h-70l-19 -192h-105zM168 561l-28 -282h54z" />
    <glyph glyph-name="b" unicode="b" horiz-adv-x="317" 
d="M130 91h31q27 0 27 32v176q0 37 -31 37h-27v-245zM130 609v-193h22q13 0 20.5 9.5t7.5 21.5v130q0 32 -27 32h-23zM20 0v700h158q53 0 84.5 -31.5t31.5 -79.5v-109q0 -43 -27 -72t-63 -31q43 -3 70.5 -27.5t27.5 -69.5l-1 -169q0 -47 -33 -79t-86 -32h-162z" />
    <glyph glyph-name="c" unicode="c" horiz-adv-x="304" 
d="M179 459v122q0 25 -23 25q-22 0 -22 -25l1 -465q0 -31 22 -31t22 31v162h109v-168q0 -125 -133 -125q-135 0 -135 131v475q0 56 33.5 89.5t101.5 33.5q65 0 99 -32t34 -83v-140h-109z" />
    <glyph glyph-name="d" unicode="d" 
d="M20 0v700h164q109 0 109 -109v-488q0 -53 -26.5 -78t-83.5 -25h-163zM134 610v-522h25q20 0 20 21v471q0 30 -25 30h-20z" />
    <glyph glyph-name="e" unicode="e" horiz-adv-x="275" 
d="M250 0h-230v700h235v-91h-118v-193h104v-84h-104v-241h113v-91z" />
    <glyph glyph-name="f" unicode="f" horiz-adv-x="270" 
d="M137 0h-117v700h235v-91h-118v-193h104v-84h-104v-332z" />
    <glyph glyph-name="g" unicode="g" horiz-adv-x="308" 
d="M179 459v122q0 25 -23 25q-22 0 -22 -25l1 -465q0 -17 11 -23t22 2t11 24v124h-23v94h132v-337h-47l-23 37q-16 -31 -49.5 -43.5t-66.5 -5.5t-57.5 37t-24.5 75v491q0 56 33.5 89.5t101.5 33.5q65 0 99 -32t34 -83v-140h-109z" />
    <glyph glyph-name="h" unicode="h" horiz-adv-x="327" 
d="M20 701h120v-285h47v285h120v-701h-120v332h-47v-332h-120v701z" />
    <glyph glyph-name="i" unicode="i" horiz-adv-x="192" 
d="M36 701h120v-701h-120v701z" />
    <glyph glyph-name="j" unicode="j" 
d="M179 700h114v-590q0 -61 -36 -93t-102 -32q-135 0 -135 131v179h115v-179q0 -31 22 -31t22 31v584z" />
    <glyph glyph-name="k" unicode="k" horiz-adv-x="330" 
d="M20 700h115v-246l55 246h111l-77 -314l98 -386h-123l-64 294v-294h-115v700z" />
    <glyph glyph-name="l" unicode="l" horiz-adv-x="255" 
d="M250 0h-230v700h115v-609h115v-91z" />
    <glyph glyph-name="m" unicode="m" horiz-adv-x="470" 
d="M17 700h169l55 -380l58 380h152v-700h-100v429l-72 -429h-82l-80 430v-430h-100v700z" />
    <glyph glyph-name="n" unicode="n" horiz-adv-x="355" 
d="M20 700h145l70 -355v355h100v-700h-126l-86 402l-2 -402h-99z" />
    <glyph glyph-name="o" unicode="o" 
d="M155 714q65 0 101.5 -35.5t36.5 -87.5v-481q0 -61 -36 -93t-102 -32q-135 0 -135 131v475q0 56 33.5 89.5t101.5 33.5zM156 606q-22 0 -22 -25l1 -465q0 -31 22 -31t22 31v465q0 25 -23 25z" />
    <glyph glyph-name="p" unicode="p" horiz-adv-x="305" 
d="M20 0v700h164q109 0 109 -109v-226q0 -53 -26.5 -78t-83.5 -25h-46v-262h-117zM134 610v-260h25q20 0 20 21v209q0 30 -25 30h-20z" />
    <glyph glyph-name="q" unicode="q" horiz-adv-x="314" 
d="M155 714q65 0 101.5 -35.5t36.5 -87.5v-481q0 -80 -60 -109v-7q0 -24 27 -24h38v-75h-56q-26 0 -41.5 18.5t-15.5 45.5q0 20 4 29q-17 -3 -34 -3q-135 0 -135 131v475q0 56 33.5 89.5t101.5 33.5zM156 606q-22 0 -22 -25l1 -465q0 -31 22 -31t22 31v465q0 25 -23 25z" />
    <glyph glyph-name="r" unicode="r" horiz-adv-x="315" 
d="M20 700h158q53 0 84.5 -31.5t31.5 -79.5v-109q0 -43 -27 -72t-63 -31q37 -1 61.5 -23t24.5 -64v-242q0 -34 19 -48h-112q-18 18 -18 59v240q0 37 -31 37h-18v-336h-110v700zM130 609v-193h21q13 0 20.5 9.5t7.5 21.5v130q0 32 -27 32h-22z" />
    <glyph glyph-name="s" unicode="s" horiz-adv-x="317" 
d="M155 714q68 0 101.5 -32t33.5 -87v-125h-108v111q0 46 -26 46q-27 0 -27 -65q0 -64 29 -100l106 -130q41 -54 41 -158v-16q0 -173 -148 -173q-145 0 -145 143v145h111v-135q0 -51 30 -51q20 0 26.5 17.5t6.5 61.5q0 66 -30 102l-95 114q-48 53 -48 172v14q0 146 142 146z
" />
    <glyph glyph-name="t" unicode="t" horiz-adv-x="296" 
d="M288 700v-90h-80v-610h-120v610h-80v90h280z" />
    <glyph glyph-name="u" unicode="u" 
d="M179 700h114v-590q0 -61 -36 -93t-102 -32q-135 0 -135 131v584h115v-584q0 -31 22 -31t22 31v584z" />
    <glyph glyph-name="v" unicode="v" horiz-adv-x="338" 
d="M118 700l53 -556l54 556h105l-75 -700h-170l-77 700h110z" />
    <glyph glyph-name="w" unicode="w" horiz-adv-x="513" 
d="M8 700h106l41 -369l45 369h113l52 -369l32 369h108l-81 -700h-111l-58 452l-59 -452h-116z" />
    <glyph glyph-name="x" unicode="x" horiz-adv-x="363" 
d="M353 0h-114l-66 252l-57 -252h-110l92 369l-71 331h110l48 -223l51 223h105l-82 -333z" />
    <glyph glyph-name="y" unicode="y" horiz-adv-x="365" 
d="M8 700h113l63 -247l62 247h111l-111 -407v-293h-127v293z" />
    <glyph glyph-name="z" unicode="z" horiz-adv-x="286" 
d="M20 700h249v-90l-132 -517h137v-93h-262v93l133 517h-125v90z" />
    <glyph glyph-name="braceleft" unicode="{" horiz-adv-x="426" 
d="M376 -94v-23q-94 0 -131 22q-56 36 -56 146v105q0 46 -6.5 70.5t-30.5 40.5q-27 19 -102 30v27q71 10 89 19q50 26 50 122v105q0 62 12.5 95.5t43.5 50.5q35 19 131 24v-23q-68 -5 -93 -25q-19 -16 -24.5 -44t-5.5 -85v-47q0 -88 -9 -114q-12 -39 -53 -62
q-32 -18 -82 -29q59 -13 84 -29q34 -22 47 -62.5t13 -122.5v-48q0 -59 6 -85.5t30 -40.5q27 -15 87 -17z" />
    <glyph glyph-name="bar" unicode="|" horiz-adv-x="152" 
d="M102 764v-998h-52v998h52z" />
    <glyph glyph-name="braceright" unicode="}" horiz-adv-x="426" 
d="M376 324v-27q-75 -11 -102 -30q-24 -16 -30.5 -40.5t-6.5 -70.5v-105q0 -110 -56 -146q-37 -22 -131 -22v23q60 2 87 17q24 14 30 40.5t6 85.5v48q0 82 13 122.5t47 62.5q25 16 84 29q-50 11 -82 29q-42 24 -52 58t-10 104v14v47q0 59 -5 86t-25 43q-25 20 -93 25v23
q96 -5 131 -24q31 -17 43.5 -50.5t12.5 -95.5v-105q0 -98 50 -122q18 -9 89 -19z" />
    <glyph glyph-name="asciitilde" unicode="~" horiz-adv-x="690" 
d="M615 768l25 -16q-17 -43 -56.5 -75t-99.5 -32q-47 0 -142 30.5t-140 30.5q-74 0 -125 -77l-27 15q37 62 74.5 88.5t90.5 26.5q48 0 139.5 -30t138.5 -30q73 0 122 69z" />
    <glyph glyph-name="exclamdown" unicode="&#xa1;" horiz-adv-x="233" 
d="M173 558v-558h-113v558h113zM173 700v-98h-113v98h113z" />
    <glyph glyph-name="cent" unicode="&#xa2;" horiz-adv-x="300" 
d="M112 0v71q-92 20 -92 127v316q0 97 92 119v67h91v-69q42 -11 63.5 -40t21.5 -69v-119h-109v101q0 25 -23 25q-22 0 -22 -25l1 -306q0 -31 22 -31t22 31v83h109v-89q0 -98 -85 -120v-72h-91z" />
    <glyph glyph-name="sterling" unicode="&#xa3;" horiz-adv-x="350" 
d="M20 332v84h31v152q0 146 142 146q68 0 101.5 -32t33.5 -87v-96h-108v82q0 46 -26 46q-28 0 -28 -63v-148h80v-84h-80v-241h164v-91h-279v332h-31z" />
    <glyph glyph-name="yen" unicode="&#xa5;" horiz-adv-x="361" 
d="M8 700h113l58 -247l67 247h107l-113 -405h72v-84h-72v-41h72v-84h-72v-86h-126v86h-69v84h69v41h-69v84h68z" />
    <glyph glyph-name="section" unicode="&#xa7;" horiz-adv-x="273" 
d="M136 713q88 0 88 -78v-81h-71v72q0 30 -17 30t-17 -42q0 -44 19 -66l69 -84q26 -35 26 -103v-11q0 -82 -56 -106l28 -33q26 -29 26 -103v-10q0 -113 -96 -113q-95 0 -95 93v95h73v-88q0 -33 19 -33q13 0 17.5 11.5t4.5 39.5q0 43 -20 67l-62 74q-32 35 -32 100v21
q0 79 66 93l-32 38q-31 34 -31 112v9q0 96 93 96zM117 361q0 -35 13 -57h4q12 0 17 11v59q0 30 -17 30t-17 -43z" />
    <glyph glyph-name="dieresis" unicode="&#xa8;" horiz-adv-x="333" 
d="M147 799v-56h-113v56h113zM304 799v-56h-113v56h113z" />
    <glyph glyph-name="copyright" unicode="&#xa9;" horiz-adv-x="644" 
d="M338 427v87q0 18 -16 18t-16 -18l1 -334q0 -23 15 -23q16 0 16 23v116h79v-121q0 -90 -96 -90q-97 0 -97 95v342q0 40 24 64t73 24q47 0 71.5 -23t24.5 -60v-100h-79zM35 349q0 103 30 183.5t96 131t160 50.5q72 0 128 -28.5t90.5 -79t52 -115.5t17.5 -142
q0 -104 -29 -184t-95 -130t-164 -50q-77 0 -133.5 28t-89 79t-48 115t-15.5 142zM100 349q0 -136 53.5 -219t167.5 -83q115 0 168 82.5t53 219.5q0 302 -221 302t-221 -302z" />
    <glyph glyph-name="ordfeminine" unicode="&#xaa;" horiz-adv-x="249" 
d="M59 700h129l40 -367h-77l-10 90h-36l-10 -90h-75zM124 627l-15 -148h28zM20 240v61h209v-61h-209z" />
    <glyph glyph-name="guillemotleft" unicode="&#xab;" horiz-adv-x="488" 
d="M244 453l-123 -87l123 -87v-93l-184 138v85l184 140v-96zM428 453l-123 -87l123 -87v-93l-184 138v85l184 140v-96z" />
    <glyph glyph-name="registered" unicode="&#xae;" horiz-adv-x="469" 
d="M144 615h103q35 0 55.5 -12.5t20.5 -31.5v-44q0 -35 -59 -41q24 0 40 -9t16 -26v-67q0 -7 4 -17t9 -12h-73q-12 7 -12 34v56q0 15 -20 15h-12v-105h-72v260zM216 579v-67h14q18 0 18 12v42q0 13 -18 13h-14zM30 478q0 114 50 175.5t151 61.5q204 0 204 -237
q0 -104 -51 -169.5t-153 -65.5q-105 0 -153 64.5t-48 170.5zM81 478q0 -85 36.5 -137t113.5 -52q78 0 114.5 52t36.5 137q0 190 -151 190q-150 0 -150 -190z" />
    <glyph glyph-name="macron" unicode="&#xaf;" horiz-adv-x="380" 
d="M94 641v59h212v-59h-212z" />
    <glyph glyph-name="degree" unicode="&#xb0;" horiz-adv-x="411" 
d="M25 529q0 75 52.5 128.5t127.5 53.5t128 -53.5t53 -128.5t-53 -127t-128 -52t-127.5 52t-52.5 127zM93 530q0 -46 33 -79t79 -33t79.5 33t33.5 79t-33.5 80t-79.5 34t-79 -33.5t-33 -80.5z" />
    <glyph glyph-name="twosuperior" unicode="&#xb2;" horiz-adv-x="203" 
d="M85 647h-61v49q0 23 22.5 38.5t55.5 15.5q40 0 58.5 -20t18.5 -51q0 -30 -16 -64l-68 -115h84v-49h-153v50l78 131q14 22 14 52q0 26 -17 26q-16 0 -16 -19v-44z" />
    <glyph glyph-name="threesuperior" unicode="&#xb3;" horiz-adv-x="187" 
d="M77 643h-51v57q0 50 67 50q68 0 68 -71v-14q0 -49 -40 -58q41 -5 41 -58v-42q0 -64 -67 -64q-70 0 -70 50l-1 76h53v-69q0 -14 14 -14q15 0 15 14v71q0 20 -21 20h-8v31h8q21 0 21 15v55q0 17 -16 17q-14 0 -14 -16z" />
    <glyph glyph-name="acute" unicode="&#xb4;" horiz-adv-x="262" 
d="M234 701l-126 -121h-72l87 121h111z" />
    <glyph glyph-name="paragraph" unicode="&#xb6;" horiz-adv-x="500" 
d="M459 701v-55h-63v-646h-59v646h-51v-646h-61v361q-87 1 -135.5 45t-48.5 125q0 42 17.5 79t62.5 64t111 27h227z" />
    <glyph glyph-name="periodcentered" unicode="&#xb7;" horiz-adv-x="153" 
d="M133 390v-98h-113v98h113z" />
    <glyph glyph-name="cedilla" unicode="&#xb8;" horiz-adv-x="286" 
d="M232 -99v-47q0 -32 -22.5 -52t-58.5 -20q-34 0 -56.5 17t-23.5 41l-1 31h59v-23q0 -7 7 -12t16 -5q8 0 14.5 5t6.5 12v48q0 12 -7 19.5t-17 7.5q-12 0 -18 -12l-4 -8l-52 18l37 79h60l-21 -43q14 2 15 2q30 0 48 -16.5t18 -41.5z" />
    <glyph glyph-name="onesuperior" unicode="&#xb9;" horiz-adv-x="164" 
d="M67 746h56v-295h-69v194h-24v49q37 8 37 52z" />
    <glyph glyph-name="ordmasculine" unicode="&#xba;" horiz-adv-x="249" 
d="M20 240v61h209v-61h-209zM126 714q46 0 70 -23.5t24 -53.5v-229q0 -42 -27.5 -63.5t-66.5 -21.5t-65.5 22t-26.5 65v224q0 33 22 56.5t70 23.5zM127 656q-12 0 -12 -13v-250q0 -16 12 -16t12 16v250q0 13 -12 13z" />
    <glyph glyph-name="guillemotright" unicode="&#xbb;" horiz-adv-x="488" 
d="M183 366l-123 87v96l184 -140v-85l-184 -138v93zM367 366l-123 87v96l184 -140v-85l-184 -138v93z" />
    <glyph glyph-name="onequarter" unicode="&#xbc;" horiz-adv-x="528" 
d="M71 0l265 701h74l-265 -701h-74zM62 700h64v-451h-78v335h-28v57q42 7 42 59zM279 126l74 326h100v-331h44v-67h-44v-54h-66v54h-108v72zM387 121v214l-45 -214h45z" />
    <glyph glyph-name="onehalf" unicode="&#xbd;" horiz-adv-x="528" 
d="M71 0l265 701h74l-265 -701h-74zM62 700h64v-451h-78v335h-28v57q42 7 42 59zM398 294h-74v77q0 38 27 62t68 24q93 0 93 -112q0 -53 -20 -101l-82 -183h102v-61h-185v63l94 207q17 39 17 83q0 14 -1 21t-5.5 13t-13.5 6q-20 0 -20 -29v-70z" />
    <glyph glyph-name="threequarters" unicode="&#xbe;" horiz-adv-x="561" 
d="M380 701l-265 -701h74l265 701h-74zM323 126l74 326h100v-331h44v-67h-44v-54h-66v54h-108v72zM431 121v214l-45 -214h45zM89 549h-66v88q0 36 22 56.5t65 20.5q45 0 67 -25.5t22 -84.5v-21q0 -77 -52 -90q26 -4 39.5 -23.5t13.5 -65.5v-66q0 -53 -22 -75.5t-65 -22.5
q-45 0 -68.5 20t-23.5 56l-1 118h69v-106q0 -22 19 -22t19 22v110q0 30 -28 30h-10v48h10q28 0 28 24v84q0 26 -21 26q-18 0 -18 -24z" />
    <glyph glyph-name="questiondown" unicode="&#xbf;" horiz-adv-x="334" 
d="M174 0q-63 0 -98.5 34.5t-35.5 90.5v93q0 41 22 83l43 84q21 38 21 85v101h113v-121q0 -42 -19 -76l-47 -88q-20 -39 -20 -78v-85q0 -26 22 -26t22 25v136h117v-129q0 -55 -36 -92t-104 -37zM126 615v98h113v-98h-113z" />
    <glyph glyph-name="Agrave" unicode="&#xc0;" horiz-adv-x="338" 
d="M151 741l-126 121h111l87 -121h-72zM83 700h170l77 -700h-110l-18 192h-70l-19 -192h-105zM168 561l-28 -282h54z" />
    <glyph glyph-name="Aacute" unicode="&#xc1;" horiz-adv-x="338" 
d="M186 743l126 121h-111l-87 -121h72zM83 700h170l77 -700h-110l-18 192h-70l-19 -192h-105zM168 561l-28 -282h54z" />
    <glyph glyph-name="Acircumflex" unicode="&#xc2;" horiz-adv-x="338" 
d="M126 744h-73l70 110h88l70 -110h-73l-41 59zM83 700h170l77 -700h-110l-18 192h-70l-19 -192h-105zM168 561l-28 -282h54z" />
    <glyph glyph-name="Atilde" unicode="&#xc3;" horiz-adv-x="338" 
d="M234 831h51q0 -37 -23 -64.5t-53 -27.5q-25 0 -53 21.5t-39 21.5q-15 0 -22 -33h-54q0 37 24 64.5t54 27.5q25 0 54 -22t40 -22q13 0 21 34zM83 700h170l77 -700h-110l-18 192h-70l-19 -192h-105zM168 561l-28 -282h54z" />
    <glyph glyph-name="Adieresis" unicode="&#xc4;" horiz-adv-x="338" 
d="M147 743v56h-113v-56h113zM304 743v56h-113v-56h113zM83 700h170l77 -700h-110l-18 192h-70l-19 -192h-105zM168 561l-28 -282h54z" />
    <glyph glyph-name="Aring" unicode="&#xc5;" horiz-adv-x="338" 
d="M138 817q0 -12 9 -20.5t21 -8.5q13 0 21.5 8.5t8.5 20.5q0 13 -8.5 21.5t-21.5 8.5q-12 0 -21 -9t-9 -21zM90 817q0 32 23 55t55 23t55 -23t23 -55q0 -33 -23 -55.5t-55 -22.5q-33 0 -55.5 22.5t-22.5 55.5zM83 700h170l77 -700h-110l-18 192h-70l-19 -192h-105zM168 561
l-28 -282h54z" />
    <glyph glyph-name="AE" unicode="&#xc6;" horiz-adv-x="472" 
d="M153 700h304v-91h-118v-193h104v-84h-104v-241h113v-91h-232v192h-71l-39 -192h-109zM220 561l-54 -282h54v282z" />
    <glyph glyph-name="Ccedilla" unicode="&#xc7;" horiz-adv-x="304" 
d="M242 -109v-47q0 -32 -22.5 -52t-58.5 -20q-34 0 -56.5 17t-23.5 41l-1 31h59v-23q0 -7 7 -12t16 -5q8 0 14.5 5t6.5 12v48q0 12 -7 19.5t-17 7.5q-12 0 -18 -12l-4 -8l-52 18l36 77q-101 15 -101 128v475q0 56 33.5 89.5t101.5 33.5q65 0 99 -32t34 -83v-140h-109v122
q0 25 -23 25q-22 0 -22 -25l1 -465q0 -31 22 -31t22 31v162h109v-168q0 -111 -108 -123l-19 -40q14 2 15 2q30 0 48 -16.5t18 -41.5z" />
    <glyph glyph-name="Egrave" unicode="&#xc8;" horiz-adv-x="275" 
d="M126 741l-126 121h111l87 -121h-72zM250 91v-91h-230v700h235v-91h-118v-193h104v-84h-104v-241h113z" />
    <glyph glyph-name="Eacute" unicode="&#xc9;" horiz-adv-x="275" 
d="M151 743l126 121h-111l-87 -121h72zM250 0h-230v700h235v-91h-118v-193h104v-84h-104v-241h113v-91z" />
    <glyph glyph-name="Ecircumflex" unicode="&#xca;" horiz-adv-x="275" 
d="M92 744h-73l70 110h88l70 -110h-73l-41 59zM250 91v-91h-230v700h235v-91h-118v-193h104v-84h-104v-241h113z" />
    <glyph glyph-name="Edieresis" unicode="&#xcb;" horiz-adv-x="275" 
d="M116 743v56h-113v-56h113zM273 743v56h-113v-56h113zM250 0h-230v700h235v-91h-118v-193h104v-84h-104v-241h113v-91z" />
    <glyph glyph-name="Igrave" unicode="&#xcc;" horiz-adv-x="192" 
d="M72 741l-126 121h111l87 -121h-72zM36 701h120v-701h-120v701z" />
    <glyph glyph-name="Iacute" unicode="&#xcd;" horiz-adv-x="192" 
d="M131 743l126 121h-111l-87 -121h72zM36 701h120v-701h-120v701z" />
    <glyph glyph-name="Icircumflex" unicode="&#xce;" horiz-adv-x="192" 
d="M59 744h-73l70 110h88l70 -110h-73l-41 59zM36 701h120v-701h-120v701z" />
    <glyph glyph-name="Idieresis" unicode="&#xcf;" horiz-adv-x="192" 
d="M76 743v56h-113v-56h113zM233 743v56h-113v-56h113zM36 701h120v-701h-120v701z" />
    <glyph glyph-name="Eth" unicode="&#xd0;" horiz-adv-x="339" 
d="M46 700h164q109 0 109 -109v-488q0 -53 -26.5 -78t-83.5 -25h-163v302h-42v90h42v308zM160 88h25q20 0 20 21v471q0 30 -25 30h-20v-218h26v-90h-26v-214z" />
    <glyph glyph-name="Ntilde" unicode="&#xd1;" horiz-adv-x="355" 
d="M255 831h51q0 -37 -23 -64.5t-53 -27.5q-26 0 -54 21.5t-38 21.5q-15 0 -22 -33h-54q0 37 24 64.5t54 27.5q25 0 54 -22t40 -22q12 0 21 34zM20 0v700h137l78 -363v363h100v-700h-118l-95 411v-411h-102z" />
    <glyph glyph-name="Ograve" unicode="&#xd2;" 
d="M145 741l-126 121h111l87 -121h-72zM155 714q65 0 101.5 -35.5t36.5 -87.5v-481q0 -61 -36 -93t-102 -32q-135 0 -135 131v475q0 56 33.5 89.5t101.5 33.5zM156 606q-22 0 -22 -25l1 -465q0 -31 22 -31t22 31v465q0 25 -23 25z" />
    <glyph glyph-name="Oacute" unicode="&#xd3;" 
d="M164 743l126 121h-111l-87 -121h72zM155 714q65 0 101.5 -35.5t36.5 -87.5v-481q0 -61 -36 -93t-102 -32q-135 0 -135 131v475q0 56 33.5 89.5t101.5 33.5zM156 606q-22 0 -22 -25l1 -465q0 -31 22 -31t22 31v465q0 25 -23 25z" />
    <glyph glyph-name="Ocircumflex" unicode="&#xd4;" 
d="M116 744h-73l70 110h88l70 -110h-73l-41 59zM155 714q65 0 101.5 -35.5t36.5 -87.5v-481q0 -61 -36 -93t-102 -32q-135 0 -135 131v475q0 56 33.5 89.5t101.5 33.5zM156 606q-22 0 -22 -25l1 -465q0 -31 22 -31t22 31v465q0 25 -23 25z" />
    <glyph glyph-name="Otilde" unicode="&#xd5;" 
d="M234 831h51q0 -37 -23 -64.5t-53 -27.5q-25 0 -53 21.5t-39 21.5q-15 0 -22 -33h-54q0 37 24 64.5t54 27.5q25 0 54 -22t40 -22q13 0 21 34zM155 714q65 0 101.5 -35.5t36.5 -87.5v-481q0 -61 -36 -93t-102 -32q-135 0 -135 131v475q0 56 33.5 89.5t101.5 33.5zM156 606
q-22 0 -22 -25l1 -465q0 -31 22 -31t22 31v465q0 25 -23 25z" />
    <glyph glyph-name="Odieresis" unicode="&#xd6;" 
d="M136 743v56h-113v-56h113zM293 743v56h-113v-56h113zM155 714q65 0 101.5 -35.5t36.5 -87.5v-481q0 -61 -36 -93t-102 -32q-135 0 -135 131v475q0 56 33.5 89.5t101.5 33.5zM156 606q-22 0 -22 -25l1 -465q0 -31 22 -31t22 31v465q0 25 -23 25z" />
    <glyph glyph-name="multiply" unicode="&#xd7;" horiz-adv-x="388" 
d="M349 276l-71 -71l-87 87l-90 -89l-71 70l90 90l-88 88l70 71l89 -88l85 85l71 -70l-85 -86z" />
    <glyph glyph-name="Oslash" unicode="&#xd8;" horiz-adv-x="319" 
d="M-18 0l42 102v14v475q0 56 33.5 89.5t101.5 33.5q65 0 103 -38l10 24h65l-41 -98q1 -3 1 -11v-481q0 -61 -36 -93t-102 -32q-69 0 -104 35l-8 -20h-65zM161 85q22 0 22 31v212l-44 -107v-105q0 -31 22 -31zM160 606q-22 0 -22 -25v-204l45 108v96q0 25 -23 25z" />
    <glyph glyph-name="Ugrave" unicode="&#xd9;" 
d="M142 741l-126 121h111l87 -121h-72zM179 700h114v-590q0 -61 -36 -93t-102 -32q-135 0 -135 131v584h115v-584q0 -31 22 -31t22 31v584z" />
    <glyph glyph-name="Uacute" unicode="&#xda;" 
d="M166 743l126 121h-111l-87 -121h72zM179 700h114v-590q0 -61 -36 -93t-102 -32q-135 0 -135 131v584h115v-584q0 -31 22 -31t22 31v584z" />
    <glyph glyph-name="Ucircumflex" unicode="&#xdb;" 
d="M116 744h-73l70 110h88l70 -110h-73l-41 59zM179 700h114v-590q0 -61 -36 -93t-102 -32q-135 0 -135 131v584h115v-584q0 -31 22 -31t22 31v584z" />
    <glyph glyph-name="Udieresis" unicode="&#xdc;" 
d="M133 743v56h-113v-56h113zM290 743v56h-113v-56h113zM179 700h114v-590q0 -61 -36 -93t-102 -32q-135 0 -135 131v584h115v-584q0 -31 22 -31t22 31v584z" />
    <glyph glyph-name="Yacute" unicode="&#xdd;" horiz-adv-x="365" 
d="M317 864l-126 -121h-72l87 121h111zM8 700h113l63 -247l62 247h111l-111 -407v-293h-127v293z" />
    <glyph glyph-name="Thorn" unicode="&#xde;" horiz-adv-x="305" 
d="M20 0v701h117v-133h47q109 0 109 -109v-226q0 -53 -26.5 -78t-83.5 -25h-46v-130h-117zM136 478v-260h21q20 0 20 21v209q0 30 -25 30h-16z" />
    <glyph glyph-name="germandbls" unicode="&#xdf;" horiz-adv-x="488" 
d="M39 0v302h-34v90h34v168q0 76 35.5 114.5t96.5 38.5q60 0 94.5 -33t34.5 -96q0 -55 6 -79t23 -43l106 -130q41 -54 41 -158v-16q0 -173 -148 -173q-145 0 -145 143v145h111v-135q0 -51 30 -51q20 0 26.5 17.5t6.5 61.5q0 66 -30 102l-95 114q-33 39 -40.5 72t-7.5 131
q0 19 -14 19t-14 -19v-585h-117z" />
    <glyph glyph-name="agrave" unicode="&#xe0;" horiz-adv-x="338" 
d="M151 741l-126 121h111l87 -121h-72zM83 700h170l77 -700h-110l-18 192h-70l-19 -192h-105zM168 561l-28 -282h54z" />
    <glyph glyph-name="aacute" unicode="&#xe1;" horiz-adv-x="338" 
d="M186 743l126 121h-111l-87 -121h72zM83 700h170l77 -700h-110l-18 192h-70l-19 -192h-105zM168 561l-28 -282h54z" />
    <glyph glyph-name="acircumflex" unicode="&#xe2;" horiz-adv-x="338" 
d="M128 744h-73l70 110h88l70 -110h-73l-41 59zM83 700h170l77 -700h-110l-18 192h-70l-19 -192h-105zM168 561l-28 -282h54z" />
    <glyph glyph-name="atilde" unicode="&#xe3;" horiz-adv-x="338" 
d="M234 831h51q0 -37 -23 -64.5t-53 -27.5q-25 0 -53 21.5t-39 21.5q-15 0 -22 -33h-54q0 37 24 64.5t54 27.5q25 0 54 -22t40 -22q13 0 21 34zM83 700h170l77 -700h-110l-18 192h-70l-19 -192h-105zM168 561l-28 -282h54z" />
    <glyph glyph-name="adieresis" unicode="&#xe4;" horiz-adv-x="338" 
d="M147 743v56h-113v-56h113zM304 743v56h-113v-56h113zM83 700h170l77 -700h-110l-18 192h-70l-19 -192h-105zM168 561l-28 -282h54z" />
    <glyph glyph-name="aring" unicode="&#xe5;" horiz-adv-x="338" 
d="M138 817q0 -12 9 -20.5t21 -8.5q13 0 21.5 8.5t8.5 20.5q0 13 -8.5 21.5t-21.5 8.5q-12 0 -21 -9t-9 -21zM90 817q0 32 23 55t55 23t55 -23t23 -55q0 -33 -23 -55.5t-55 -22.5q-33 0 -55.5 22.5t-22.5 55.5zM83 700h170l77 -700h-110l-18 192h-70l-19 -192h-105zM168 561
l-28 -282h54z" />
    <glyph glyph-name="ae" unicode="&#xe6;" horiz-adv-x="472" 
d="M153 700h304v-91h-118v-193h104v-84h-104v-241h113v-91h-232v192h-71l-39 -192h-109zM220 561l-54 -282h54v282z" />
    <glyph glyph-name="ccedilla" unicode="&#xe7;" horiz-adv-x="304" 
d="M242 -109v-47q0 -32 -22.5 -52t-58.5 -20q-34 0 -56.5 17t-23.5 41l-1 31h59v-23q0 -7 7 -12t16 -5q8 0 14.5 5t6.5 12v48q0 12 -7 19.5t-17 7.5q-12 0 -18 -12l-4 -8l-52 18l36 77q-101 15 -101 128v475q0 56 33.5 89.5t101.5 33.5q65 0 99 -32t34 -83v-140h-109v122
q0 25 -23 25q-22 0 -22 -25l1 -465q0 -31 22 -31t22 31v162h109v-168q0 -111 -108 -123l-19 -40q14 2 15 2q30 0 48 -16.5t18 -41.5z" />
    <glyph glyph-name="egrave" unicode="&#xe8;" horiz-adv-x="275" 
d="M134 741l-126 121h111l87 -121h-72zM250 91v-91h-230v700h235v-91h-118v-193h104v-84h-104v-241h113z" />
    <glyph glyph-name="eacute" unicode="&#xe9;" horiz-adv-x="275" 
d="M149 743l126 121h-111l-87 -121h72zM250 0h-230v700h235v-91h-118v-193h104v-84h-104v-241h113v-91z" />
    <glyph glyph-name="ecircumflex" unicode="&#xea;" horiz-adv-x="275" 
d="M92 744h-73l70 110h88l70 -110h-73l-41 59zM250 91v-91h-230v700h235v-91h-118v-193h104v-84h-104v-241h113z" />
    <glyph glyph-name="edieresis" unicode="&#xeb;" horiz-adv-x="275" 
d="M115 743v56h-113v-56h113zM272 743v56h-113v-56h113zM250 0h-230v700h235v-91h-118v-193h104v-84h-104v-241h113v-91z" />
    <glyph glyph-name="igrave" unicode="&#xec;" horiz-adv-x="192" 
d="M72 741l-126 121h111l87 -121h-72zM36 701h120v-701h-120v701z" />
    <glyph glyph-name="iacute" unicode="&#xed;" horiz-adv-x="192" 
d="M130 743l126 121h-111l-87 -121h72zM36 701h120v-701h-120v701z" />
    <glyph glyph-name="icircumflex" unicode="&#xee;" horiz-adv-x="192" 
d="M57 744h-73l70 110h88l70 -110h-73l-41 59zM36 701h120v-701h-120v701z" />
    <glyph glyph-name="idieresis" unicode="&#xef;" horiz-adv-x="192" 
d="M74 743v56h-113v-56h113zM231 743v56h-113v-56h113zM36 701h120v-701h-120v701z" />
    <glyph glyph-name="eth" unicode="&#xf0;" horiz-adv-x="339" 
d="M46 700h164q109 0 109 -109v-488q0 -53 -26.5 -78t-83.5 -25h-163v302h-42v90h42v308zM160 88h25q20 0 20 21v471q0 30 -25 30h-20v-218h26v-90h-26v-214z" />
    <glyph glyph-name="ntilde" unicode="&#xf1;" horiz-adv-x="355" 
d="M253 828h51q0 -37 -23 -64.5t-53 -27.5q-26 0 -54 21.5t-38 21.5q-15 0 -22 -33h-54q0 37 24 64.5t54 27.5q25 0 54 -22t40 -22q12 0 21 34zM22 0l-2 700h145l70 -355v355h100v-700h-126l-86 402l-2 -402h-99z" />
    <glyph glyph-name="ograve" unicode="&#xf2;" 
d="M148 741l-126 121h111l87 -121h-72zM155 714q65 0 101.5 -35.5t36.5 -87.5v-481q0 -61 -36 -93t-102 -32q-135 0 -135 131v475q0 56 33.5 89.5t101.5 33.5zM156 606q-22 0 -22 -25l1 -465q0 -31 22 -31t22 31v465q0 25 -23 25z" />
    <glyph glyph-name="oacute" unicode="&#xf3;" 
d="M164 743l126 121h-111l-87 -121h72zM155 714q65 0 101.5 -35.5t36.5 -87.5v-481q0 -61 -36 -93t-102 -32q-135 0 -135 131v475q0 56 33.5 89.5t101.5 33.5zM156 606q-22 0 -22 -25l1 -465q0 -31 22 -31t22 31v465q0 25 -23 25z" />
    <glyph glyph-name="ocircumflex" unicode="&#xf4;" 
d="M117 744h-73l70 110h88l70 -110h-73l-41 59zM155 714q65 0 101.5 -35.5t36.5 -87.5v-481q0 -61 -36 -93t-102 -32q-135 0 -135 131v475q0 56 33.5 89.5t101.5 33.5zM156 606q-22 0 -22 -25l1 -465q0 -31 22 -31t22 31v465q0 25 -23 25z" />
    <glyph glyph-name="otilde" unicode="&#xf5;" 
d="M234 831h51q0 -37 -23 -64.5t-53 -27.5q-25 0 -53 21.5t-39 21.5q-15 0 -22 -33h-54q0 37 24 64.5t54 27.5q25 0 54 -22t40 -22q13 0 21 34zM155 714q65 0 101.5 -35.5t36.5 -87.5v-481q0 -61 -36 -93t-102 -32q-135 0 -135 131v475q0 56 33.5 89.5t101.5 33.5zM156 606
q-22 0 -22 -25l1 -465q0 -31 22 -31t22 31v465q0 25 -23 25z" />
    <glyph glyph-name="odieresis" unicode="&#xf6;" 
d="M134 743v56h-113v-56h113zM291 743v56h-113v-56h113zM155 714q65 0 101.5 -35.5t36.5 -87.5v-481q0 -61 -36 -93t-102 -32q-135 0 -135 131v475q0 56 33.5 89.5t101.5 33.5zM156 606q-22 0 -22 -25l1 -465q0 -31 22 -31t22 31v465q0 25 -23 25z" />
    <glyph glyph-name="divide" unicode="&#xf7;" horiz-adv-x="388" 
d="M368 413v-100h-348v100h348zM144 448v100h100v-100h-100zM144 181v100h100v-100h-100z" />
    <glyph glyph-name="oslash" unicode="&#xf8;" horiz-adv-x="319" 
d="M-18 0l42 102v14v475q0 56 33.5 89.5t101.5 33.5q65 0 103 -38l10 24h65l-41 -98q1 -3 1 -11v-481q0 -61 -36 -93t-102 -32q-69 0 -104 35l-8 -20h-65zM161 85q22 0 22 31v212l-44 -107v-105q0 -31 22 -31zM160 606q-22 0 -22 -25v-204l45 108v96q0 25 -23 25z" />
    <glyph glyph-name="ugrave" unicode="&#xf9;" 
d="M142 741l-126 121h111l87 -121h-72zM179 700h114v-590q0 -61 -36 -93t-102 -32q-135 0 -135 131v584h115v-584q0 -31 22 -31t22 31v584z" />
    <glyph glyph-name="uacute" unicode="&#xfa;" 
d="M164 743l126 121h-111l-87 -121h72zM179 700h114v-590q0 -61 -36 -93t-102 -32q-135 0 -135 131v584h115v-584q0 -31 22 -31t22 31v584z" />
    <glyph glyph-name="ucircumflex" unicode="&#xfb;" 
d="M119 744h-73l70 110h88l70 -110h-73l-41 59zM179 700h114v-590q0 -61 -36 -93t-102 -32q-135 0 -135 131v584h115v-584q0 -31 22 -31t22 31v584z" />
    <glyph glyph-name="udieresis" unicode="&#xfc;" 
d="M135 743v56h-113v-56h113zM292 743v56h-113v-56h113zM179 700h114v-590q0 -61 -36 -93t-102 -32q-135 0 -135 131v584h115v-584q0 -31 22 -31t22 31v584z" />
    <glyph glyph-name="yacute" unicode="&#xfd;" horiz-adv-x="365" 
d="M317 864l-126 -121h-72l87 121h111zM8 700h113l63 -247l62 247h111l-111 -407v-293h-127v293z" />
    <glyph glyph-name="thorn" unicode="&#xfe;" horiz-adv-x="305" 
d="M20 0v701h117v-133h47q109 0 109 -109v-226q0 -53 -26.5 -78t-83.5 -25h-46v-130h-117zM136 478v-260h21q20 0 20 21v209q0 30 -25 30h-16z" />
    <glyph glyph-name="ydieresis" unicode="&#xff;" horiz-adv-x="365" 
d="M161 799v-56h-113v56h113zM318 799v-56h-113v56h113zM8 700h113l63 -247l62 247h111l-111 -407v-293h-127v293z" />
    <glyph glyph-name="Abreve" unicode="&#x102;" horiz-adv-x="338" 
d="M69 853h60q0 -46 39 -46q38 0 38 46h60q0 -112 -98 -112q-99 0 -99 112zM83 700h170l77 -700h-110l-18 192h-70l-19 -192h-105zM168 561l-28 -282h54z" />
    <glyph glyph-name="abreve" unicode="&#x103;" horiz-adv-x="338" 
d="M69 853h60q0 -46 39 -46q38 0 38 46h60q0 -112 -98 -112q-99 0 -99 112zM83 700h170l77 -700h-110l-18 192h-70l-19 -192h-105zM168 561l-28 -282h54z" />
    <glyph glyph-name="Aogonek" unicode="&#x104;" horiz-adv-x="338" 
d="M83 700h170l77 -700h-70q-23 -20 -17.5 -47.5t37.5 -27.5h49v-89h-70q-33 0 -55.5 24.5t-22.5 55.5q0 51 39 84l-18 192h-70l-19 -192h-105zM168 561l-28 -282h54z" />
    <glyph glyph-name="aogonek" unicode="&#x105;" horiz-adv-x="338" 
d="M83 700h170l77 -700h-70q-23 -20 -17.5 -47.5t37.5 -27.5h49v-89h-70q-33 0 -55.5 24.5t-22.5 55.5q0 51 39 84l-18 192h-70l-19 -192h-105zM168 561l-28 -282h54z" />
    <glyph glyph-name="Cacute" unicode="&#x106;" horiz-adv-x="304" 
d="M184 745h-64l45 121h109zM179 459v122q0 25 -23 25q-22 0 -22 -25l1 -465q0 -31 22 -31t22 31v162h109v-168q0 -125 -133 -125q-135 0 -135 131v475q0 56 33.5 89.5t101.5 33.5q65 0 99 -32t34 -83v-140h-109z" />
    <glyph glyph-name="cacute" unicode="&#x107;" horiz-adv-x="304" 
d="M184 745h-64l45 121h109zM179 459v122q0 25 -23 25q-22 0 -22 -25l1 -465q0 -31 22 -31t22 31v162h109v-168q0 -125 -133 -125q-135 0 -135 131v475q0 56 33.5 89.5t101.5 33.5q65 0 99 -32t34 -83v-140h-109z" />
    <glyph glyph-name="Ccaron" unicode="&#x10c;" horiz-adv-x="304" 
d="M40 863h73l41 -59l41 59h73l-70 -110h-88zM179 459v122q0 25 -23 25q-22 0 -22 -25l1 -465q0 -31 22 -31t22 31v162h109v-168q0 -125 -133 -125q-135 0 -135 131v475q0 56 33.5 89.5t101.5 33.5q65 0 99 -32t34 -83v-140h-109z" />
    <glyph glyph-name="ccaron" unicode="&#x10d;" horiz-adv-x="304" 
d="M38 863h73l41 -59l41 59h73l-70 -110h-88zM179 459v122q0 25 -23 25q-22 0 -22 -25l1 -465q0 -31 22 -31t22 31v162h109v-168q0 -125 -133 -125q-135 0 -135 131v475q0 56 33.5 89.5t101.5 33.5q65 0 99 -32t34 -83v-140h-109z" />
    <glyph glyph-name="Dcaron" unicode="&#x10e;" 
d="M30 855h73l41 -59l41 59h73l-70 -110h-88zM20 0v700h164q109 0 109 -109v-488q0 -53 -26.5 -78t-83.5 -25h-163zM134 610v-522h25q20 0 20 21v471q0 30 -25 30h-20z" />
    <glyph glyph-name="dcaron" unicode="&#x10f;" 
d="M30 855h73l41 -59l41 59h73l-70 -110h-88zM20 0v700h164q109 0 109 -109v-488q0 -53 -26.5 -78t-83.5 -25h-163zM134 610v-522h25q20 0 20 21v471q0 30 -25 30h-20z" />
    <glyph glyph-name="Dcroat" unicode="&#x110;" horiz-adv-x="339" 
d="M46 700h164q109 0 109 -109v-488q0 -53 -26.5 -78t-83.5 -25h-163v302h-42v90h42v308zM160 88h25q20 0 20 21v471q0 30 -25 30h-20v-218h26v-90h-26v-214z" />
    <glyph glyph-name="dcroat" unicode="&#x111;" horiz-adv-x="339" 
d="M46 700h164q109 0 109 -109v-488q0 -53 -26.5 -78t-83.5 -25h-163v302h-42v90h42v308zM160 88h25q20 0 20 21v471q0 30 -25 30h-20v-218h26v-90h-26v-214z" />
    <glyph glyph-name="Eogonek" unicode="&#x118;" horiz-adv-x="275" 
d="M250 0h-69q-24 -20 -19.5 -48.5t37.5 -28.5h49v-89h-70q-33 0 -55.5 24.5t-22.5 55.5q0 54 41 86h-121v700h235v-91h-118v-193h104v-84h-104v-241h113v-91z" />
    <glyph glyph-name="eogonek" unicode="&#x119;" horiz-adv-x="275" 
d="M250 0h-69q-24 -20 -19.5 -48.5t37.5 -28.5h49v-89h-70q-33 0 -55.5 24.5t-22.5 55.5q0 54 41 86h-121v700h235v-91h-118v-193h104v-84h-104v-241h113v-91z" />
    <glyph glyph-name="Ecaron" unicode="&#x11a;" horiz-adv-x="275" 
d="M28 855h73l41 -59l41 59h73l-70 -110h-88zM250 91v-91h-230v700h235v-91h-118v-193h104v-84h-104v-241h113z" />
    <glyph glyph-name="ecaron" unicode="&#x11b;" horiz-adv-x="275" 
d="M28 855h73l41 -59l41 59h73l-70 -110h-88zM250 91v-91h-230v700h235v-91h-118v-193h104v-84h-104v-241h113z" />
    <glyph glyph-name="dotlessi" unicode="&#x131;" horiz-adv-x="192" 
d="M36 701h120v-701h-120v701z" />
    <glyph glyph-name="Lacute" unicode="&#x139;" horiz-adv-x="255" 
d="M111 745h-64l45 121h109zM250 91v-91h-230v700h115v-609h115z" />
    <glyph glyph-name="lacute" unicode="&#x13a;" horiz-adv-x="255" 
d="M107 745h-64l45 121h109zM250 91v-91h-230v700h115v-609h115z" />
    <glyph glyph-name="Lcaron" unicode="&#x13d;" horiz-adv-x="284" 
d="M269 701v-84l-63 -111h-45l42 111h-31v84h97zM250 91v-91h-230v700h115v-609h115z" />
    <glyph glyph-name="lcaron" unicode="&#x13e;" horiz-adv-x="284" 
d="M269 701v-84l-63 -111h-45l42 111h-31v84h97zM250 91v-91h-230v700h115v-609h115z" />
    <glyph glyph-name="Lslash" unicode="&#x141;" horiz-adv-x="298" 
d="M5 252v107l48 50v291h115v-170l49 52v-107l-49 -52v-332h115v-91h-230v302z" />
    <glyph glyph-name="lslash" unicode="&#x142;" horiz-adv-x="298" 
d="M5 252v107l48 50v291h115v-170l49 52v-107l-49 -52v-332h115v-91h-230v302z" />
    <glyph glyph-name="Nacute" unicode="&#x143;" horiz-adv-x="355" 
d="M208 745h-64l45 121h109zM20 700h137l78 -363v363h100v-700h-118l-95 411v-411h-102v700z" />
    <glyph glyph-name="nacute" unicode="&#x144;" horiz-adv-x="355" 
d="M213 745h-64l45 121h109zM20 700h145l70 -355v355h100v-700h-126l-86 402l-2 -402h-99z" />
    <glyph glyph-name="Ncaron" unicode="&#x147;" horiz-adv-x="355" 
d="M74 855h73l41 -59l41 59h73l-70 -110h-88zM20 700h137l78 -363v363h100v-700h-118l-95 411v-411h-102v700z" />
    <glyph glyph-name="ncaron" unicode="&#x148;" horiz-adv-x="355" 
d="M68 855h73l41 -59l41 59h73l-70 -110h-88zM20 700h145l70 -355v355h100v-700h-126l-86 402l-2 -402h-99z" />
    <glyph glyph-name="Ohungarumlaut" unicode="&#x150;" 
d="M119 745l126 121h-111l-87 -121h72zM255 745l126 121h-111l-87 -121h72zM155 714q65 0 101.5 -35.5t36.5 -87.5v-481q0 -61 -36 -93t-102 -32q-135 0 -135 131v475q0 56 33.5 89.5t101.5 33.5zM156 606q-22 0 -22 -25l1 -465q0 -31 22 -31t22 31v465q0 25 -23 25z" />
    <glyph glyph-name="ohungarumlaut" unicode="&#x151;" 
d="M119 745l126 121h-111l-87 -121h72zM255 745l126 121h-111l-87 -121h72zM155 714q65 0 101.5 -35.5t36.5 -87.5v-481q0 -61 -36 -93t-102 -32q-135 0 -135 131v475q0 56 33.5 89.5t101.5 33.5zM156 606q-22 0 -22 -25l1 -465q0 -31 22 -31t22 31v465q0 25 -23 25z" />
    <glyph glyph-name="OE" unicode="&#x152;" horiz-adv-x="435" 
d="M410 0h-179q-31 -15 -76 -15q-135 0 -135 131v475q0 56 33.5 89.5t101.5 33.5q37 0 68 -14h192v-91h-118v-193h104v-84h-104v-241h113v-91zM156 606q-22 0 -22 -25l1 -465q0 -31 22 -31t22 31v465q0 25 -23 25z" />
    <glyph glyph-name="oe" unicode="&#x153;" horiz-adv-x="435" 
d="M410 0h-179q-31 -15 -76 -15q-135 0 -135 131v475q0 56 33.5 89.5t101.5 33.5q37 0 68 -14h192v-91h-118v-193h104v-84h-104v-241h113v-91zM156 606q-22 0 -22 -25l1 -465q0 -31 22 -31t22 31v465q0 25 -23 25z" />
    <glyph glyph-name="Racute" unicode="&#x154;" horiz-adv-x="315" 
d="M164 745h-64l45 121h109zM20 700h158q53 0 84.5 -31.5t31.5 -79.5v-109q0 -43 -27 -72t-63 -31q37 -1 61.5 -23t24.5 -64v-242q0 -34 19 -48h-112q-18 18 -18 59v240q0 37 -31 37h-18v-336h-110v700zM130 609v-193h21q13 0 20.5 9.5t7.5 21.5v130q0 32 -27 32h-22z" />
    <glyph glyph-name="racute" unicode="&#x155;" horiz-adv-x="315" 
d="M164 745h-64l45 121h109zM20 700h158q53 0 84.5 -31.5t31.5 -79.5v-109q0 -43 -27 -72t-63 -31q37 -1 61.5 -23t24.5 -64v-242q0 -34 19 -48h-112q-18 18 -18 59v240q0 37 -31 37h-18v-336h-110v700zM130 609v-193h21q13 0 20.5 9.5t7.5 21.5v130q0 32 -27 32h-22z" />
    <glyph glyph-name="Rcaron" unicode="&#x158;" horiz-adv-x="315" 
d="M30 855h73l41 -59l41 59h73l-70 -110h-88zM20 700h158q53 0 84.5 -31.5t31.5 -79.5v-109q0 -43 -27 -72t-63 -31q37 -1 61.5 -23t24.5 -64v-242q0 -34 19 -48h-112q-18 18 -18 59v240q0 37 -31 37h-18v-336h-110v700zM130 609v-193h21q13 0 20.5 9.5t7.5 21.5v130
q0 32 -27 32h-22z" />
    <glyph glyph-name="rcaron" unicode="&#x159;" horiz-adv-x="315" 
d="M30 855h73l41 -59l41 59h73l-70 -110h-88zM20 700h158q53 0 84.5 -31.5t31.5 -79.5v-109q0 -43 -27 -72t-63 -31q37 -1 61.5 -23t24.5 -64v-242q0 -34 19 -48h-112q-18 18 -18 59v240q0 37 -31 37h-18v-336h-110v700zM130 609v-193h21q13 0 20.5 9.5t7.5 21.5v130
q0 32 -27 32h-22z" />
    <glyph glyph-name="Sacute" unicode="&#x15a;" horiz-adv-x="317" 
d="M177 745h-64l45 121h109zM155 714q68 0 101.5 -32t33.5 -87v-125h-108v111q0 46 -26 46q-27 0 -27 -65q0 -64 29 -100l106 -130q41 -54 41 -158v-16q0 -173 -148 -173q-145 0 -145 143v145h111v-135q0 -51 30 -51q20 0 26.5 17.5t6.5 61.5q0 66 -30 102l-95 114
q-48 53 -48 172v14q0 146 142 146z" />
    <glyph glyph-name="sacute" unicode="&#x15b;" horiz-adv-x="317" 
d="M177 745h-64l45 121h109zM155 714q68 0 101.5 -32t33.5 -87v-125h-108v111q0 46 -26 46q-27 0 -27 -65q0 -64 29 -100l106 -130q41 -54 41 -158v-16q0 -173 -148 -173q-145 0 -145 143v145h111v-135q0 -51 30 -51q20 0 26.5 17.5t6.5 61.5q0 66 -30 102l-95 114
q-48 53 -48 172v14q0 146 142 146z" />
    <glyph glyph-name="Scedilla" unicode="&#x15e;" horiz-adv-x="317" 
d="M155 714q68 0 101.5 -32t33.5 -87v-125h-108v111q0 46 -26 46q-27 0 -27 -65q0 -64 29 -100l106 -130q41 -54 41 -158v-16q0 -159 -128 -172l-16 -34q14 2 15 2q30 0 48 -16.5t18 -41.5v-47q0 -32 -22.5 -52t-58.5 -20q-34 0 -56.5 17t-23.5 41l-1 31h59v-23q0 -7 7 -12
t16 -5q8 0 14.5 5t6.5 12v48q0 12 -7 19.5t-17 7.5q-12 0 -18 -12l-4 -8l-52 18l33 72q-106 19 -106 140v145h111v-135q0 -51 30 -51q20 0 26.5 17.5t6.5 61.5q0 66 -30 102l-95 114q-48 53 -48 172v14q0 146 142 146z" />
    <glyph glyph-name="scedilla" unicode="&#x15f;" horiz-adv-x="317" 
d="M155 714q68 0 101.5 -32t33.5 -87v-125h-108v111q0 46 -26 46q-27 0 -27 -65q0 -64 29 -100l106 -130q41 -54 41 -158v-16q0 -159 -128 -172l-16 -34q14 2 15 2q30 0 48 -16.5t18 -41.5v-47q0 -32 -22.5 -52t-58.5 -20q-34 0 -56.5 17t-23.5 41l-1 31h59v-23q0 -7 7 -12
t16 -5q8 0 14.5 5t6.5 12v48q0 12 -7 19.5t-17 7.5q-12 0 -18 -12l-4 -8l-52 18l33 72q-106 19 -106 140v145h111v-135q0 -51 30 -51q20 0 26.5 17.5t6.5 61.5q0 66 -30 102l-95 114q-48 53 -48 172v14q0 146 142 146z" />
    <glyph glyph-name="Scaron" unicode="&#x160;" horiz-adv-x="317" 
d="M39 855h73l41 -59l41 59h73l-70 -110h-88zM155 714q68 0 101.5 -32t33.5 -87v-125h-108v111q0 46 -26 46q-27 0 -27 -65q0 -64 29 -100l106 -130q41 -54 41 -158v-16q0 -173 -148 -173q-145 0 -145 143v145h111v-135q0 -51 30 -51q20 0 26.5 17.5t6.5 61.5q0 66 -30 102
l-95 114q-48 53 -48 172v14q0 146 142 146z" />
    <glyph glyph-name="scaron" unicode="&#x161;" horiz-adv-x="317" 
d="M39 855h73l41 -59l41 59h73l-70 -110h-88zM155 714q68 0 101.5 -32t33.5 -87v-125h-108v111q0 46 -26 46q-27 0 -27 -65q0 -64 29 -100l106 -130q41 -54 41 -158v-16q0 -173 -148 -173q-145 0 -145 143v145h111v-135q0 -51 30 -51q20 0 26.5 17.5t6.5 61.5q0 66 -30 102
l-95 114q-48 53 -48 172v14q0 146 142 146z" />
    <glyph glyph-name="uni0162" unicode="&#x162;" horiz-adv-x="296" 
d="M196 -51v-84l-63 -111h-45l42 111h-31v84h97zM8 700h280v-90h-80v-610h-120v610h-80v90z" />
    <glyph glyph-name="uni0163" unicode="&#x163;" horiz-adv-x="296" 
d="M196 -51v-84l-63 -111h-45l42 111h-31v84h97zM8 700h280v-90h-80v-610h-120v610h-80v90z" />
    <glyph glyph-name="Tcaron" unicode="&#x164;" horiz-adv-x="296" 
d="M34 855h73l41 -59l41 59h73l-70 -110h-88zM8 700h280v-90h-80v-610h-120v610h-80v90z" />
    <glyph glyph-name="tcaron" unicode="&#x165;" horiz-adv-x="296" 
d="M34 855h73l41 -59l41 59h73l-70 -110h-88zM8 700h280v-90h-80v-610h-120v610h-80v90z" />
    <glyph glyph-name="Uring" unicode="&#x16e;" 
d="M127 817q0 -12 9 -20.5t21 -8.5q13 0 21.5 8.5t8.5 20.5q0 13 -8.5 21.5t-21.5 8.5q-12 0 -21 -9t-9 -21zM79 817q0 32 23 55t55 23t55 -23t23 -55q0 -33 -23 -55.5t-55 -22.5q-33 0 -55.5 22.5t-22.5 55.5zM179 700h114v-590q0 -61 -36 -93t-102 -32q-135 0 -135 131
v584h115v-584q0 -31 22 -31t22 31v584z" />
    <glyph glyph-name="uring" unicode="&#x16f;" 
d="M127 817q0 -12 9 -20.5t21 -8.5q13 0 21.5 8.5t8.5 20.5q0 13 -8.5 21.5t-21.5 8.5q-12 0 -21 -9t-9 -21zM79 817q0 32 23 55t55 23t55 -23t23 -55q0 -33 -23 -55.5t-55 -22.5q-33 0 -55.5 22.5t-22.5 55.5zM179 700h114v-590q0 -61 -36 -93t-102 -32q-135 0 -135 131
v584h115v-584q0 -31 22 -31t22 31v584z" />
    <glyph glyph-name="Uhungarumlaut" unicode="&#x170;" 
d="M119 745l126 121h-111l-87 -121h72zM255 745l126 121h-111l-87 -121h72zM179 700h114v-590q0 -61 -36 -93t-102 -32q-135 0 -135 131v584h115v-584q0 -31 22 -31t22 31v584z" />
    <glyph glyph-name="uhungarumlaut" unicode="&#x171;" 
d="M119 745l126 121h-111l-87 -121h72zM255 745l126 121h-111l-87 -121h72zM179 700h114v-590q0 -61 -36 -93t-102 -32q-135 0 -135 131v584h115v-584q0 -31 22 -31t22 31v584z" />
    <glyph glyph-name="Ydieresis" unicode="&#x178;" horiz-adv-x="365" 
d="M161 799v-56h-113v56h113zM318 799v-56h-113v56h113zM8 700h113l63 -247l62 247h111l-111 -407v-293h-127v293z" />
    <glyph glyph-name="Zacute" unicode="&#x179;" horiz-adv-x="286" 
d="M184 745h-64l45 121h109zM20 700h249v-90l-132 -517h137v-93h-262v93l133 517h-125v90z" />
    <glyph glyph-name="zacute" unicode="&#x17a;" horiz-adv-x="286" 
d="M184 745h-64l45 121h109zM20 700h249v-90l-132 -517h137v-93h-262v93l133 517h-125v90z" />
    <glyph glyph-name="Zdotaccent" unicode="&#x17b;" horiz-adv-x="286" 
d="M205 819v-74h-113v74h113zM20 700h249v-90l-132 -517h137v-93h-262v93l133 517h-125v90z" />
    <glyph glyph-name="zdotaccent" unicode="&#x17c;" horiz-adv-x="286" 
d="M205 819v-74h-113v74h113zM20 700h249v-90l-132 -517h137v-93h-262v93l133 517h-125v90z" />
    <glyph glyph-name="Zcaron" unicode="&#x17d;" horiz-adv-x="286" 
d="M34 855h73l41 -59l41 59h73l-70 -110h-88zM20 700h249v-90l-132 -517h137v-93h-262v93l133 517h-125v90z" />
    <glyph glyph-name="zcaron" unicode="&#x17e;" horiz-adv-x="286" 
d="M34 855h73l41 -59l41 59h73l-70 -110h-88zM20 700h249v-90l-132 -517h137v-93h-262v93l133 517h-125v90z" />
    <glyph glyph-name="Scomma" unicode="&#x218;" horiz-adv-x="317" 
d="M206 -135v84h-97v-84h31l-42 -111h45zM155 714q68 0 101.5 -32t33.5 -87v-125h-108v111q0 46 -26 46q-27 0 -27 -65q0 -64 29 -100l106 -130q41 -54 41 -158v-16q0 -173 -148 -173q-145 0 -145 143v145h111v-135q0 -51 30 -51q20 0 26.5 17.5t6.5 61.5q0 66 -30 102
l-95 114q-48 53 -48 172v14q0 146 142 146z" />
    <glyph glyph-name="scomma" unicode="&#x219;" horiz-adv-x="317" 
d="M206 -135v84h-97v-84h31l-42 -111h45zM155 714q68 0 101.5 -32t33.5 -87v-125h-108v111q0 46 -26 46q-27 0 -27 -65q0 -64 29 -100l106 -130q41 -54 41 -158v-16q0 -173 -148 -173q-145 0 -145 143v145h111v-135q0 -51 30 -51q20 0 26.5 17.5t6.5 61.5q0 66 -30 102
l-95 114q-48 53 -48 172v14q0 146 142 146z" />
    <glyph glyph-name="Tcomma" unicode="&#x21a;" horiz-adv-x="296" 
d="M198 -51v-84l-63 -111h-45l42 111h-31v84h97zM8 700h280v-90h-80v-610h-120v610h-80v90z" />
    <glyph glyph-name="tcomma" unicode="&#x21b;" horiz-adv-x="296" 
d="M196 -51v-84l-63 -111h-45l42 111h-31v84h97zM8 700h280v-90h-80v-610h-120v610h-80v90z" />
    <glyph glyph-name="circumflex" unicode="&#x2c6;" horiz-adv-x="262" 
d="M90 591h-73l70 110h88l70 -110h-73l-41 59z" />
    <glyph glyph-name="caron" unicode="&#x2c7;" horiz-adv-x="266" 
d="M17 701h73l41 -59l41 59h73l-70 -110h-88z" />
    <glyph glyph-name="breve" unicode="&#x2d8;" horiz-adv-x="306" 
d="M115 700q0 -46 39 -46q38 0 38 46h60q0 -112 -98 -112q-99 0 -99 112h60z" />
    <glyph glyph-name="dotaccent" unicode="&#x2d9;" horiz-adv-x="178" 
d="M148 701v-74h-113v74h113z" />
    <glyph glyph-name="ring" unicode="&#x2da;" horiz-adv-x="282" 
d="M118 633q0 -12 9 -20.5t21 -8.5q13 0 21.5 8.5t8.5 20.5q0 13 -8.5 21.5t-21.5 8.5q-12 0 -21 -9t-9 -21zM70 633q0 32 23 55t55 23t55 -23t23 -55q0 -33 -23 -55.5t-55 -22.5q-33 0 -55.5 22.5t-22.5 55.5z" />
    <glyph glyph-name="ogonek" unicode="&#x2db;" horiz-adv-x="197" 
d="M74 0h41q-17 -12 -22.5 -31t4.5 -34t32 -15h49v-89h-70q-33 0 -55.5 24.5t-22.5 55.5q0 14 2.5 26t6.5 20t9.5 16t9.5 12t9.5 9t6.5 6z" />
    <glyph glyph-name="tilde" unicode="&#x2dc;" horiz-adv-x="281" 
d="M261 703q0 -37 -23 -64.5t-53 -27.5q-25 0 -53 21.5t-39 21.5q-15 0 -22 -33h-54q0 37 24 64.5t54 27.5q25 0 54 -22t40 -22q13 0 21 34h51z" />
    <glyph glyph-name="hungarumlaut" unicode="&#x2dd;" horiz-adv-x="395" 
d="M234 701l-126 -121h-72l87 121h111zM370 701l-126 -121h-72l87 121h111z" />
    <glyph glyph-name="endash" unicode="&#x2013;" horiz-adv-x="388" 
d="M368 413v-100h-348v100h348z" />
    <glyph glyph-name="emdash" unicode="&#x2014;" horiz-adv-x="561" 
d="M541 413v-100h-521v100h521z" />
    <glyph glyph-name="quoteleft" unicode="&#x2018;" horiz-adv-x="188" 
d="M36 474v98l73 129h53l-49 -129h36v-98h-113z" />
    <glyph glyph-name="quoteright" unicode="&#x2019;" horiz-adv-x="188" 
d="M162 701v-98l-73 -129h-53l49 129h-36v98h113z" />
    <glyph glyph-name="quotesinglbase" unicode="&#x201a;" horiz-adv-x="198" 
d="M162 98v-98l-73 -129h-53l49 129h-36v98h113z" />
    <glyph glyph-name="quotedblleft" unicode="&#x201c;" horiz-adv-x="330" 
d="M178 474v98l73 129h53l-49 -129h36v-98h-113zM36 474v98l73 129h53l-49 -129h36v-98h-113z" />
    <glyph glyph-name="quotedblright" unicode="&#x201d;" horiz-adv-x="330" 
d="M162 701v-98l-73 -129h-53l49 129h-36v98h113zM304 701v-98l-73 -129h-53l49 129h-36v98h113z" />
    <glyph glyph-name="quotedblbase" unicode="&#x201e;" horiz-adv-x="330" 
d="M162 98v-98l-73 -129h-53l49 129h-36v98h113zM304 98v-98l-73 -129h-53l49 129h-36v98h113z" />
    <glyph glyph-name="dagger" unicode="&#x2020;" horiz-adv-x="378" 
d="M234 166h-90v316h-104v90h104v128h90v-128h104v-90h-104v-316z" />
    <glyph glyph-name="daggerdbl" unicode="&#x2021;" horiz-adv-x="378" 
d="M234 167h-90v143h-104v90h104v83h-104v90h104v128h90v-128h104v-90h-104v-83h104v-90h-104v-143z" />
    <glyph glyph-name="bullet" unicode="&#x2022;" horiz-adv-x="280" 
d="M40 346q0 42 29 71t71 29t71 -29t29 -71t-29 -71t-71 -29t-71 29t-29 71zM146 216v1v-1v-1v1z" />
    <glyph glyph-name="perthousand" unicode="&#x2030;" horiz-adv-x="750" 
d="M108 714q42 0 65.5 -23t23.5 -57v-311q0 -39 -23.5 -60t-65.5 -21q-88 0 -88 84v308q0 37 22 58.5t66 21.5zM108 644q-14 0 -14 -16l1 -302q0 -20 14 -20t14 20v302q0 16 -15 16zM439 459q42 0 65.5 -23t23.5 -57v-311q0 -39 -23.5 -60t-65.5 -21q-88 0 -88 84v308
q0 37 22 58.5t66 21.5zM439 389q-14 0 -14 -16l1 -302q0 -20 14 -20t14 20v302q0 16 -15 16zM106 0l265 701h74l-265 -701h-74zM641 459q42 0 65.5 -23t23.5 -57v-311q0 -39 -23.5 -60t-65.5 -21q-88 0 -88 84v308q0 37 22 58.5t66 21.5zM641 389q-14 0 -14 -16l1 -302
q0 -20 14 -20t14 20v302q0 16 -15 16z" />
    <glyph glyph-name="guilsinglleft" unicode="&#x2039;" horiz-adv-x="304" 
d="M244 453l-123 -87l123 -87v-93l-184 138v85l184 140v-96z" />
    <glyph glyph-name="guilsinglright" unicode="&#x203a;" horiz-adv-x="304" 
d="M183 366l-123 87v96l184 -140v-85l-184 -138v93z" />
    <glyph glyph-name="fraction" unicode="&#x2044;" horiz-adv-x="366" 
d="M17 0l265 701h74l-265 -701h-74z" />
    <glyph glyph-name="Euro" unicode="&#x20ac;" horiz-adv-x="363" 
d="M267 337l-14 -84h-64l1 -137q0 -31 22 -31t22 31v79h109v-85q0 -125 -133 -125q-135 0 -135 131v137h-60v84h60v38h-60v84h60v132q0 56 33.5 89.5t101.5 33.5q65 0 99 -32t34 -83v-98h-109v80q0 25 -23 25q-22 0 -22 -25v-122h111l-14 -84h-97v-38h78z" />
    <glyph glyph-name="trademark" unicode="&#x2122;" horiz-adv-x="449" 
d="M33 700h139v-44h-40v-303h-59v303h-40v44zM196 353v347h84l27 -188l29 188h76v-347h-50v213l-36 -213h-40l-40 214v-214h-50z" />
    <glyph glyph-name="onethird" unicode="&#x2153;" horiz-adv-x="528" 
d="M71 0l265 701h74l-265 -701h-74zM62 700h64v-451h-78v335h-28v57q42 7 42 59zM392 294h-66v88q0 36 22 56.5t65 20.5q45 0 67 -25.5t22 -84.5v-21q0 -77 -52 -90q26 -4 39.5 -23.5t13.5 -65.5v-66q0 -53 -22 -75.5t-65 -22.5q-45 0 -68.5 20t-23.5 56l-1 118h69v-106
q0 -22 19 -22t19 22v110q0 30 -28 30h-10v48h10q28 0 28 24v84q0 26 -21 26q-18 0 -18 -24z" />
    <glyph glyph-name="twothirds" unicode="&#x2154;" horiz-adv-x="604" 
d="M412 701l-265 -701h74l265 701h-74zM468 294h-66v88q0 36 22 56.5t65 20.5q45 0 67 -25.5t22 -84.5v-21q0 -77 -52 -90q26 -4 39.5 -23.5t13.5 -65.5v-66q0 -53 -22 -75.5t-65 -22.5q-45 0 -68.5 20t-23.5 56l-1 118h69v-106q0 -22 19 -22t19 22v110q0 30 -28 30h-10v48
h10q28 0 28 24v84q0 26 -21 26q-18 0 -18 -24zM94 551h-74v77q0 38 27 62t68 24q93 0 93 -112q0 -53 -20 -101l-82 -183h102v-61h-185v63l94 207q17 39 17 83q0 14 -1 21t-5.5 13t-13.5 6q-20 0 -20 -29v-70z" />
    <glyph glyph-name="oneeighth" unicode="&#x215b;" horiz-adv-x="528" 
d="M71 0l265 701h74l-265 -701h-74zM62 700h64v-451h-78v335h-28v57q42 7 42 59zM416 459q39 0 62 -22t23 -59v-66q0 -50 -45 -69q50 -18 50 -69v-109q0 -34 -23.5 -57t-66.5 -23q-41 0 -66 23t-25 57v109q0 49 49 68q-46 16 -46 70v66q0 36 23.5 58.5t64.5 22.5zM433 65
v134q0 9 -5.5 14t-11.5 5t-11.5 -5t-5.5 -14v-134q0 -20 17 -20t17 20zM401 383v-102q0 -14 16 -14q15 0 15 14v102q0 16 -15 16q-16 0 -16 -16z" />
    <glyph glyph-name="threeeighths" unicode="&#x215c;" horiz-adv-x="582" 
d="M125 0l265 701h74l-265 -701h-74zM470 459q39 0 62 -22t23 -59v-66q0 -50 -45 -69q50 -18 50 -69v-109q0 -34 -23.5 -57t-66.5 -23q-41 0 -66 23t-25 57v109q0 49 49 68q-46 16 -46 70v66q0 36 23.5 58.5t64.5 22.5zM487 65v134q0 9 -5.5 14t-11.5 5t-11.5 -5t-5.5 -14
v-134q0 -20 17 -20t17 20zM455 383v-102q0 -14 16 -14q15 0 15 14v102q0 16 -15 16q-16 0 -16 -16zM23 549h66l-1 77q0 24 18 24q21 0 21 -26v-84q0 -24 -28 -24h-10v-48h10q28 0 28 -30v-110q0 -22 -19 -22t-19 22v106h-69l1 -118q0 -36 23.5 -56t68.5 -20q43 0 65 22.5
t22 75.5v66q0 46 -13.5 65.5t-39.5 23.5q52 13 52 90v21q0 59 -22 84.5t-67 25.5q-43 0 -65 -20.5t-22 -56.5v-88z" />
    <glyph glyph-name="fiveeighths" unicode="&#x215d;" horiz-adv-x="568" 
d="M111 0l265 701h74l-265 -701h-74zM456 459q39 0 62 -22t23 -59v-66q0 -50 -45 -69q50 -18 50 -69v-109q0 -34 -23.5 -57t-66.5 -23q-41 0 -66 23t-25 57v109q0 49 49 68q-46 16 -46 70v66q0 36 23.5 58.5t64.5 22.5zM473 65v134q0 9 -5.5 14t-11.5 5t-11.5 -5t-5.5 -14
v-134q0 -20 17 -20t17 20zM441 383v-102q0 -14 16 -14q15 0 15 14v102q0 16 -15 16q-16 0 -16 -16zM20 463v237h176l-9 -58h-98v-122q14 30 49 30q22 0 38 -15.5t16 -43.5v-174q0 -37 -23 -56.5t-63 -19.5q-86 0 -86 75v117h69v-106q0 -24 19 -24t19 24v141q0 23 -20 23
q-18 0 -18 -20v-8h-69z" />
    <glyph glyph-name="seveneighths" unicode="&#x215e;" horiz-adv-x="517" 
d="M60 0l265 701h74l-265 -701h-74zM405 459q39 0 62 -22t23 -59v-66q0 -50 -45 -69q50 -18 50 -69v-109q0 -34 -23.5 -57t-66.5 -23q-41 0 -66 23t-25 57v109q0 49 49 68q-46 16 -46 70v66q0 36 23.5 58.5t64.5 22.5zM422 65v134q0 9 -5 14t-12 5t-12 -5t-5 -14v-134
q0 -20 17 -20t17 20zM390 383v-102q0 -14 16 -14q15 0 15 14v102q0 16 -15 16q-16 0 -16 -16zM20 641v59h174v-58l-87 -393h-78l89 392h-98z" />
    <glyph glyph-name="minus" unicode="&#x2212;" horiz-adv-x="388" 
d="M368 413v-100h-348v100h348z" />
    <glyph glyph-name="apple" unicode="&#xf8ff;" horiz-adv-x="1295" 
d="M134 221q0 -7 -6 -22t-16 -15q-16 -11 -17 -12q-6 -2 -7 -2l-4 2q-46 14 -47 26q-3 3 -6 15t-7 17v4l-1 2q-1 1 -2 4t-2.5 7t-2.5 8t-1 7q0 16 -2.5 25.5t-2.5 11.5q0 14 5 23q0 66 9 73q0 11 3 17t10 13t10 12q1 0 4 6t11 11.5t22 5.5q28 0 41 -13q11 -11 12.5 -17
t1.5 -30q-1 -1 -7.5 -30t-19.5 -29q-10 0 -19 8t-9 19q0 40 9 45q2 1 5 1q14 0 14 -14q0 -19 -5 -18q-4 -2 -4.5 0.5t-0.5 8.5v2v2l5 5h-5l-2 -1q-2 -1 -4.5 -4.5t-2.5 -8.5v0h1q2 -1 3 -3t1 -6q0 -14 4 -18q7 0 10 12t4.5 26t4.5 17q-3 3 -4.5 9t-9.5 14q-5 5 -28 5
q0 2 -5.5 -4.5t-11.5 -19t-6 -23.5l-5 -4q0 -9 -4 -14q0 -46 -5 -50q0 -21 2.5 -35.5t2.5 -19.5q0 -28 5 -47t13.5 -27t15 -11t12.5 -3q2 0 3 1q2 5 11 13q23 23 23 46q9 0 9 -10zM166 368q2 1 4 2.5t3 3.5l3 3q4 0 4 -4q-2 2 -14 -22l-4 -10q0 -12 -2.5 -31.5t-2.5 -23.5
q0 -8 1.5 -9.5t7.5 -0.5q0 1 1 2q3 3 4 3l-1 -3q0 -2 1 -4t5 -2q2 -6 19 18q2 3 3 5q0 28 -3.5 34.5t-18.5 6.5q-5 0 -5 14l5 4v5h4l4 -2q3 -2 6.5 -5t3.5 -7q3 4 14.5 10t22.5 18h4l-4 -5q0 -3 -2.5 -6t-7.5 -6t-8.5 -5t-9 -4l-5.5 -2q0 -4 3 -9.5t5.5 -9.5t1.5 -4
q0 -8 -5 -21t-5 -15q-6 -14 -12 -19t-20 -5q-13 0 -21 14.5t-9.5 25.5t-1.5 16q0 31 32 50zM300 395q0 2 2 4q1 1 3 1q4 0 7 -1.5t4 -4t1.5 -6t0.5 -6v-6.5v-3q2 -6 -1 -9.5t-3 -4.5q0 -64 9 -64l-1 2q-1 2 1 6.5t9 9.5q0 7 4 11q1 1 5 3v-5q2 0 -0.5 -3.5t-5.5 -9t-3 -10.5
q0 -12 -2 -17t-5 -5t-5 -2t-2 -8q-3 0 -4 -2q0 -2 -5 -3q-18 0 -18 33q-4 -4 -8.5 -10.5t-9.5 -12.5q-4 0 -14 -2.5t-33 -2.5q0 3 -2.5 7t-2.5 7t2.5 8.5t3.5 8.5t-1 6q0 1 -0.5 7.5t-1 11.5t1 11.5t5.5 10.5q0 5 1 13t7 18t15 10q5 0 12 -7q2 -4 2 -6q0 -7 2 -6q3 -2 3 -4
q0 -3 -2 -5q-4 -5 -8 -17q0 -12 -3 -29.5t-1 -30.5q17 0 21.5 9t10.5 9v60q0 9 2 17.5t2 9.5q0 4 2 5.5t3 1.5t0 2zM346 331l-5 37q0 7 4 8t14 1v-23q6 6 12 14t8.5 9.5t10.5 3t25 1.5q14 0 23 -5q6 -11 18 -23q3 -3 8.5 -19.5t5.5 -21.5q0 -22 -4 -23h-5q-9 0 -9 0.5v13.5
q-3 0 -4 8.5t-1.5 19t-3.5 13.5q0 12 -10 17.5t-18 5.5q0 3 -8.5 6t-14.5 3q-5 -6 -10 -10.5t-7.5 -5.5t-4 -3t-1.5 -4q-5 -4 -10 -9v-9q0 -9 2.5 -19t2.5 -18q0 -7 -5.5 -12.5t-8.5 -5.5h-4v50zM470 442h18q5 -5 10 -5q0 1 -1 12.5t0 18.5t5 11q0 6 4.5 12t9.5 6q1 0 2 -1
q2 -2 2 -4l-2 -4q-2 -8 -2 -9l-5 -42q6 5 47 5q4 0 4 -5h-4q0 -3 -17 -6t-25 -3q-9 0 -9 -42q-5 -14 -5 -55q0 -5 -2 -11t-2 -11q0 -11 -2.5 -25.5t-2.5 -16.5q0 -4 2 -8.5t3.5 -6.5t-0.5 -4q0 -9 18 -9q13 0 18 15.5t5 26.5q0 8 -3.5 14t-6.5 7.5t-4 1.5q-3 0 -7 -9t-2 -14
q0 -15 13 -14h1q0 -1 -0.5 -2.5t-1.5 -2.5q-1 -4 -5 -4q-1 0 -2 1l-1 1h-4q-9 16 -9 35q3 0 8 9t19 9l6 -11q7 -11 4 -16v-19q0 -16 -9.5 -26.5t-18.5 -10.5q-11 0 -18.5 3.5t-11 8t-5.5 12.5t-2.5 12t-0.5 12l1 8q0 8 -0.5 20t0 16.5t1.5 11t4 11.5q0 14 4 23q0 31 10 41
v19q-35 1 -32 9q0 5 4 5zM595 386q11 0 9 -27q0 -3 2 -7t2 -7q-5 0 -11 0.5t-9.5 0.5h-8t-6 -1t-4.5 -2.5t-2.5 -4.5t0.5 -7q0 -32 14 -36q9 -5 14 -5h1q8 -1 8 9q2 -2 5 6q4 9 4 13t4 9q0 -2 -2 -12.5t-2 -15.5q0 -8 -10.5 -13t-17.5 -5t-13 2t-8 4t-4 5l-2 3q-12 9 -12 26
q0 5 2 15q0 3 1 4q3 8 4 10h-5q0 3 24 27q16 9 23 9zM572 363q0 -3 -1 -5q-1 -5 -4 -8h32h5q-3 8 -4 12t-3.5 9.5t-4 8t-2.5 2.5q-5 1 -14 -14zM627 336l1 -1q0 -1 -1 -1q-3 0 -4 -2q-2 0 -3.5 1t-2.5 2.5l-1 1.5q0 2 4 2l1 -1v1q0 1 1 2q9 7 23 36q9 11 9 32q-6 0 -12 9
t-6 15q0 4 0.5 7.5t2 5.5t3 3t3.5 1.5t3 0.5h4h2q23 0 23 -18q0 -3 -2.5 -7.5t-2.5 -6.5l-4 -5q2 -6 23 -23q4 -5 7 -11.5t3.5 -13t0 -11.5t-1.5 -9v-5q0 -3 -9 -25t-9 -35q-2 -4 -1 -7t5 -10.5t5 -10.5q-1 1 -6 1.5t-17 12.5q-19 19 -19 37q0 10 9.5 35.5t9.5 37.5
q5 6 4 9.5t0 4.5q-6 6 -9 9.5t-4 4.5q-2 -1 -0.5 -2.5t1 -6.5t-5.5 -10q0 -13 -8 -25.5t-14 -18.5t-5 -6zM719 391v23q5 11 7.5 22t6.5 15q0 19 18 19q13 0 27 -14q10 -10 10 -33v-9q23 23 51.5 44t40.5 21q5 0 9 -7t5 -7q0 -8 -3.5 -16t-9 -14t-10.5 -11t-8 -7.5t-2 -2.5
q-9 0 -37 -28q-17 -8 -36 -27v-23q-7 -7 -6 -27t-4 -23q0 -25 -4 -27q-2 -1 -5 -1l-4 -5h-5q0 8 4.5 26.5t4.5 19.5q0 13 2.5 39.5t2.5 29.5v74q0 10 -11 18q-3 2 -3 0q-23 0 -23 -32q-4 -9 -4 -23q-1 -1 1.5 -12t7.5 -11q14 0 14 37q0 1 -1 2q-2 2 -4 2q-5 -2 -5 -9
q-1 -1 -1 -3q-2 -2 -3 -2q0 19 10 19q2 0 8 -10q4 -6 5 -9q0 -2 -1 -3q-1 -3 -4 -6q0 -8 -4.5 -16t-8.5 -12t-5 -4q-8 0 -15.5 5.5t-7.5 17.5zM788 405v-37q0 -1 20 17.5t25 23.5q12 12 22 25t14.5 19.5t5.5 6.5q0 5 -14 5q-6 -6 -17 -12.5t-15 -10.5q-25 -21 -41 -37z
M898 395q8 0 10.5 -0.5t3.5 -1t2 -4t3 -7.5q1 -1 3 -7.5t6 -6.5q0 -13 -5 -18q0 -11 -6 -22t-13.5 -19.5t-7.5 -9.5q-3 -2 -7 -6.5t-6.5 -6.5t-7.5 -3.5t-12 -1.5q-11 0 -19 5t-10.5 10t-2.5 8q-5 5 -6 9.5t0 8.5l1 5q0 4 4.5 13t4.5 14q0 7 8 14.5t18.5 14.5t11.5 8
q6 0 12.5 2t14.5 2zM907 386q-7 0 -16 -13.5t-11 -13.5l-14 -12q-14 -14 -14 -20q0 -27 2.5 -32t16.5 -5q15 13 17.5 22.5t9.5 14.5q5 3 12 25q2 10 2 16v7q0 5 -4 10zM944 386l5 -4l6 -3q1 -1 4 -3q2 0 2.5 -1t0.5 -2q5 -5 5 -14q-18 -33 -18 -83q0 -23 17 -23q3 -3 15 9
q0 -17 -20 -17q-17 0 -17 13q0 2 -2.5 6.5t-2.5 7.5q0 14 -4 18v51q0 7 4.5 18t4.5 14l-3 3q-1 0 -2 1q4 9 5 9zM971 428v-5q8 1 10 -4v-5v-19q0 -3 -4.5 -3.5t-8.5 0.5t-6 -1q-2 1 -5.5 3t-3.5 6q0 9 2.5 15.5t3 7t4.5 2.5q1 1 -1 3h9zM990 382q0 5 3 8.5t7 4.5t7 2t2 3
q4 -2 5 -7.5t0 -14.5t-1 -10q0 -4 -2 -11t-2 -12v-46q8 6 9.5 24.5t4.5 21.5q0 19 16 41.5t29 22.5q12 0 23 -14l3 -9q2 -9 2 -23q-4 -5 -9 -27q-5 -5 -5 -32q0 -3 2.5 -11.5t2.5 -16.5v-2.5t-0.5 -2.5t-2 -2.5t-4.5 -1t-7 -0.5q-14 0 -14 28q0 3 -2 16.5t-2 24.5
q0 5 4.5 14t4.5 18q0 4 2 11l3 10.5t-1 5.5q0 5 -4 5l-5 -9q0 -4 -6.5 -17.5t-6.5 -19.5q-15 -28 -20.5 -46t-12.5 -27q-9 0 -15 5.5t-9 9.5t-4 3q0 1 -2 7q-1 0 -1 1t-1 2q0 64 9 73zM1100 395q4 0 15.5 0.5t17.5 0.5q3 0 5 -0.5t4 -0.5v52q-1 1 0 2q0 2 4 2l4 -4t3 -2.5
t2 -1.5t1 -2t0.5 -2t0 -3t-0.5 -4v-5.5v-7.5v-24h51q0 -4 -23 -4q-8 0 -15.5 1t-12.5 1q0 -3 -2.5 -15t-2.5 -24q0 -11 5 -32t9 -27q0 -16 9 -33q0 -11 6 -18t12 -8l5 -2q6 0 10.5 7t8.5 7v5q4 0 4 -5q-1 0 -5 -6t-11.5 -11.5t-15.5 -5.5q-7 0 -17.5 8.5t-10.5 19.5
q-6 5 -8 15.5t-6 17.5q0 10 -4.5 33.5t-4.5 25.5v14q0 -56 -23 -78q-7 -25 -20.5 -42.5t-20.5 -17.5l7 7t5.5 7.5t5.5 10t10 20t18 33.5q4 4 7 21t6 25q0 17 5 28v8q0 5 4 12q-4 0 -8.5 -1t-6.5 -1h-7h-23q0 4 4 4zM1282 430v-7h-21v7h4v14l-11 -22h-5l-10 22v-14h4v-7h-20
v7h8v17h-8v9h19l10 -23l11 23h19v-9h-9v-17h9zM1219 456v-16h-7v7h-10v-17h9v-7h-25v7h8v17h-10v-7h-7v16h42z" />
    <glyph glyph-name="_0151" horiz-adv-x="0" 
 />
    <glyph glyph-name="ampersand.salt" horiz-adv-x="355" 
d="M135 -15q-48 0 -81.5 36.5t-33.5 113.5v132q0 71 21 100.5t61 36.5q-39 8 -59.5 36.5t-20.5 92.5v21q0 160 136 160q67 0 101 -31.5t34 -86.5v-121h-102l1 103q0 38 -28 38q-31 0 -31 -41v-99q0 -37 43 -37h15v-74h-15q-43 0 -43 -46v-200q0 -13 8 -20.5t19 -7.5
q26 0 26 28v124h-23v89h184v-92h-52v-240h-47l-23 37q-28 -52 -90 -52z" />
    </font>
</defs>
</svg>
